<?xml version="1.0" encoding="UTF-8" standalone="no"?>
<!DOCTYPE svg  PUBLIC '-//W3C//DTD SVG 1.1//EN'  'http://www.w3.org/Graphics/SVG/1.1/DTD/svg11.dtd'>
<svg xmlns="http://www.w3.org/2000/svg">
<defs>
<font id="NoeDisplay-Bold" horiz-adv-x="540">
<font-face underline-position="-82" font-weight="700" descent="-200" panose-1="2 10 8 0 9 4 0 0 0 2" units-per-em="1000" unicode-range="U+0020-25CA" bbox="-226 -250 1052 933" x-height="495" underline-thickness="19" font-family="NoeDisplay" ascent="800" cap-height="703"/>
<missing-glyph horiz-adv-x="1000"/>
<glyph glyph-name=".notdef" horiz-adv-x="1000"/>
<glyph glyph-name=".null" horiz-adv-x="0"/>
<glyph glyph-name="nonmarkingreturn" horiz-adv-x="333"/>
<glyph glyph-name="space" horiz-adv-x="197" unicode=" "/>
<glyph glyph-name="exclam" horiz-adv-x="310" unicode="!" d="M74 68q0 34 23.5 56.5t56.5 22.5q34 0 57.5 -22t23.5 -57q0 -33 -23.5 -54.5t-57.5 -21.5q-33 0 -56.5 21.5t-23.5 54.5zM273 703l-118 -484h-2l-116 484h236z"/>
<glyph glyph-name="quotedbl" horiz-adv-x="362" unicode='&quot;' d="M324 612l-55 -156h-2l-54 156q-7 19 -7 38q0 28 16 45.5t46 17.5q31 0 46.5 -17.5t15.5 -45.5q0 -18 -6 -38zM149 612l-54 -156h-2l-54 156q-7 19 -7 38q0 28 16 45.5t46 17.5t46 -17.5t16 -45.5q0 -17 -7 -38z"/>
<glyph glyph-name="numbersign" horiz-adv-x="588" unicode="#" d="M245 437l-58 -203h155l58 203h-155zM491 215h-134l-54 -189l-18 6l52 183h-156l-54 -189l-18 6l52 183h-126v19h131l58 203h-126v19h132l56 197l20 -6l-55 -191h155l56 197l20 -6l-55 -191h126v-19h-132l-58 -203h128v-19z"/>
<glyph glyph-name="dollar" horiz-adv-x="569" unicode="$" d="M185 584q0 -39 23 -64t72 -51v223q-44 -6 -69.5 -34.5t-25.5 -73.5zM393 124q0 39 -22.5 65.5t-71.5 52.5v-229q44 9 69 37.5t25 73.5zM264 -10q-109 0 -205 28v239h2l132 -228q9 -15 22 -17q17 -3 42 -3q15 0 23 1v242l-56 27q-40 19 -67.5 36.5t-57.5 44.5t-45.5 63 t-15.5 81q0 91 65.5 147t176.5 61v81h19v-80q96 0 191 -23v-228h-2l-135 216q-10 14 -20 15t-29 1h-5v-235l50 -24q39 -19 62 -31.5t51.5 -33t44 -40.5t26.5 -49t11 -63q0 -95 -66.5 -156.5t-178.5 -69.5v-96h-19v94h-16z"/>
<glyph glyph-name="percent" horiz-adv-x="682" unicode="%" d="M600 701l-503 -711l-16 13l503 710zM481 290q73 0 108.5 -39.5t35.5 -110.5q0 -70 -35.5 -109.5t-108.5 -39.5q-71 0 -106.5 40t-35.5 110q0 69 35.5 109t106.5 40zM481 275q-26 0 -33.5 -29.5t-7.5 -104.5t7.5 -105t33.5 -30t34.5 30t8.5 104q0 75 -8.5 105t-34.5 30z M196 713q73 0 108.5 -39.5t35.5 -110.5q0 -70 -35.5 -109.5t-108.5 -39.5q-71 0 -106.5 40t-35.5 110q0 69 35.5 109t106.5 40zM196 698q-26 0 -33.5 -29.5t-7.5 -104.5t7.5 -105t33.5 -30t34.5 30t8.5 104q0 75 -8.5 105t-34.5 30z"/>
<glyph glyph-name="ampersand" horiz-adv-x="771" unicode="&amp;" d="M237 598q0 -41 20.5 -80t73.5 -96q65 60 65 147q0 63 -23 95t-58 32t-56.5 -26.5t-21.5 -71.5zM358 154l-154 170q-47 -47 -47 -109q0 -71 48.5 -117t110.5 -46t106 36q-26 25 -64 66zM225 -10q-88 0 -143 45t-55 118q0 66 46 108t124 72q-46 51 -67.5 95t-21.5 94 q0 83 56.5 137t156.5 54q85 0 137.5 -37t52.5 -103q0 -110 -172 -160l154 -167q31 -33 44 -45q48 63 54 89q1 2 1 6q0 9 -17 31l-77 98v2h248v-2l-101 -103q-19 -20 -32 -42q-39 -60 -64 -91q44 -41 72 -56t54 -15q27 0 50.5 18.5t34.5 54.5h2q2 -14 2 -33 q0 -77 -42.5 -122.5t-113.5 -45.5q-45 0 -85 20.5t-90 66.5q-100 -87 -208 -87z"/>
<glyph glyph-name="quotesingle" horiz-adv-x="188" unicode="&apos;" d="M149 612l-54 -156h-2l-54 156q-7 23 -7 38q0 28 16 45.5t46 17.5t46 -17.5t16 -45.5q0 -15 -7 -38z"/>
<glyph glyph-name="parenleft" horiz-adv-x="340" unicode="(" d="M54 292q0 239 144 374q54 51 131 72l1 -2q-50 -41 -82 -107q-70 -143 -70 -337t70 -337q32 -66 82 -107l-1 -2q-77 21 -131 72q-144 135 -144 374z"/>
<glyph glyph-name="parenright" horiz-adv-x="340" unicode=")" d="M286 292q0 -244 -143 -374q-55 -51 -132 -72l-1 2q50 41 82 107q70 143 70 337t-70 337q-32 66 -82 107l1 2q77 -21 132 -72q143 -130 143 -374z"/>
<glyph glyph-name="asterisk" horiz-adv-x="423" unicode="*" d="M397 520l-184 8l151 -102l-105 -76l-50 174l-50 -173l-105 76l151 101l-179 -7l40 124l140 -112l-59 170h130l-65 -170l144 111z"/>
<glyph glyph-name="plus" d="M51 314v19h209v211h20v-211h210v-19h-210v-210h-20v210h-209z" unicode="+"/>
<glyph glyph-name="comma" horiz-adv-x="243" unicode="," d="M41 -132l-1 2q36 19 57 54t21 69q0 12 -15 15q-28 4 -44.5 23.5t-16.5 47.5q0 31 20.5 52t53.5 21q36 0 58.5 -25t22.5 -69q0 -65 -45 -120.5t-111 -69.5z"/>
<glyph glyph-name="hyphen" horiz-adv-x="351" unicode="-" d="M46 237v20h260v-20h-260z"/>
<glyph glyph-name="period" horiz-adv-x="243" unicode="." d="M41 68q0 34 23.5 56.5t56.5 22.5q34 0 57.5 -22t23.5 -57q0 -33 -23.5 -54.5t-57.5 -21.5q-33 0 -56.5 21.5t-23.5 54.5z"/>
<glyph glyph-name="slash" horiz-adv-x="380" unicode="/" d="M348 732l-297 -886l-19 6l297 886z"/>
<glyph glyph-name="zero" horiz-adv-x="681" unicode="0" d="M340 713q143 0 221.5 -90t78.5 -272t-78.5 -271.5t-221.5 -89.5t-221.5 90t-78.5 272t78.5 271.5t221.5 89.5zM340 9q58 0 88 78.5t30 264.5q0 187 -30 264.5t-88 77.5t-87.5 -77.5t-29.5 -264.5t29.5 -265t87.5 -78z"/>
<glyph glyph-name="one" horiz-adv-x="406" unicode="1" d="M297 721v-630q0 -16 11 -24l79 -65v-2h-345v2l80 65q10 8 10 24v464q0 17 -10 20l-93 34v2z"/>
<glyph glyph-name="two" horiz-adv-x="564" unicode="2" d="M517 523q0 -42 -17 -81.5t-42 -71.5t-70.5 -70t-85 -65.5t-103.5 -68.5l-44 -29h259q20 0 26.5 3t18.5 15l66 72h2l-35 -227h-471v2l125 150q52 63 92 121q53 78 75 134.5t22 121.5q0 81 -26 122.5t-72 41.5q-15 0 -26 -3q-10 -2 -15 -14l-85 -201h-2l-78 181 q118 57 246 57q116 0 178 -52t62 -138z"/>
<glyph glyph-name="three" horiz-adv-x="576" unicode="3" d="M544 196q0 -94 -78.5 -150t-227.5 -56q-114 0 -210 34l80 200h2l74 -198q7 -17 25 -17h22q57 0 94 49t37 127q0 77 -37.5 121t-122.5 55v2q139 30 139 184q0 66 -27.5 106t-71.5 40q-14 0 -22 -1q-12 -2 -19 -17l-85 -200h-2l-78 181q114 57 244 57q108 0 173 -46.5 t65 -126.5q0 -71 -43.5 -111.5t-126.5 -57.5v-2q90 -9 143 -55t53 -118z"/>
<glyph glyph-name="four" horiz-adv-x="603" unicode="4" d="M37 199h235v421zM292 703h144v-504h21q11 0 15.5 2.5t10.5 11.5l103 177h2l-19 -211h-133v-89q0 -12 11 -23l71 -65v-2h-330v2l72 64q12 10 12 24v89h-268v1z"/>
<glyph glyph-name="five" horiz-adv-x="574" unicode="5" d="M543 222q0 -115 -81 -173.5t-220 -58.5q-117 0 -210 33l76 199h2l77 -196q7 -17 24 -17h23q56 0 92.5 51t36.5 137q0 80 -41 126t-121 46q-59 0 -116 -33l-2 1l17 368l200 -8q46 -2 65 -2q81 0 116 32l29 27h2l-11 -97q-7 -60 -41 -80.5t-108 -20.5q-44 0 -65 1l-174 7 l-9 -201q105 68 214 68q103 0 164 -58t61 -151z"/>
<glyph glyph-name="six" horiz-adv-x="632" unicode="6" d="M314 396q-48 0 -92 -38v-11q0 -338 108 -338q45 0 74 52.5t29 143.5q0 87 -29 139t-90 52zM398 442q91 0 146 -54t55 -154q0 -111 -72.5 -177.5t-194.5 -66.5q-142 0 -217 93.5t-75 263.5q0 179 83 272.5t246 93.5q103 0 204 -35l-79 -173h-2l-95 175q-5 9 -9.5 11.5 t-16.5 2.5h-13q-71 0 -103 -76t-33 -248q67 72 176 72z"/>
<glyph glyph-name="seven" horiz-adv-x="525" unicode="7" d="M432 535q-60 -186 -120 -535h-210q70 154 161.5 313t159.5 252h-319q-12 0 -16.5 -2.5t-12.5 -11.5l-55 -65h-2l23 217h489v-2l-76 -118q-12 -19 -22 -48z"/>
<glyph glyph-name="eight" horiz-adv-x="597" unicode="8" d="M187 595q0 -42 27 -73.5t87 -64.5l70 -39q42 43 42 122q0 68 -32.5 111t-87.5 43q-47 0 -76.5 -27t-29.5 -72zM327 240l-113 63q-54 -42 -54 -140q0 -63 43.5 -108t107.5 -45q53 0 86.5 28.5t33.5 79.5q0 38 -24.5 65t-79.5 57zM301 -10q-116 0 -189.5 47.5t-73.5 121.5 q0 59 44.5 96.5t123.5 51.5l-6 4q-72 49 -108 93.5t-36 109.5q0 90 68 144.5t173 54.5q95 0 164 -44t69 -118q0 -56 -40.5 -90.5t-109.5 -46.5l39 -21q77 -42 114 -87t37 -112q0 -86 -72 -145t-197 -59z"/>
<glyph glyph-name="nine" horiz-adv-x="632" unicode="9" d="M321 305q43 0 89 41v9q0 183 -27.5 261t-80.5 78q-45 0 -74.5 -53t-29.5 -147q0 -84 30 -136.5t93 -52.5zM241 261q-85 0 -147 55.5t-62 155.5q0 109 73 175t195 66q143 0 217 -92t74 -266q0 -169 -84 -267t-240 -98q-106 0 -209 37l75 177h2l98 -181q5 -9 9 -11t17 -3 h16q70 0 101.5 76t33.5 247q-65 -71 -169 -71z"/>
<glyph glyph-name="colon" horiz-adv-x="243" unicode=":" d="M41 398q0 34 23.5 56.5t56.5 22.5q34 0 57.5 -22t23.5 -57q0 -33 -23.5 -54.5t-57.5 -21.5q-33 0 -56.5 21.5t-23.5 54.5zM41 68q0 34 23.5 56.5t56.5 22.5q34 0 57.5 -22t23.5 -57q0 -33 -23.5 -54.5t-57.5 -21.5q-33 0 -56.5 21.5t-23.5 54.5z"/>
<glyph glyph-name="semicolon" horiz-adv-x="243" unicode=";" d="M41 398q0 34 23.5 56.5t56.5 22.5q34 0 57.5 -22t23.5 -57q0 -33 -23.5 -54.5t-57.5 -21.5q-33 0 -56.5 21.5t-23.5 54.5zM41 -132l-1 2q36 19 57 54t21 69q0 12 -15 15q-28 4 -44.5 23.5t-16.5 47.5q0 31 20.5 52t53.5 21q36 0 58.5 -25t22.5 -69q0 -65 -45 -120.5 t-111 -69.5z"/>
<glyph glyph-name="less" d="M58 324l390 179l7 -19l-353 -161l353 -161l-7 -19l-390 179v2z" unicode="&lt;"/>
<glyph glyph-name="equal" d="M50 225v19h440v-19h-440zM50 404v19h440v-19h-440z" unicode="="/>
<glyph glyph-name="greater" d="M92 503l390 -179v-2l-390 -179l-7 19l352 161l-352 161z" unicode="&gt;"/>
<glyph glyph-name="question" horiz-adv-x="458" unicode="?" d="M131 68q0 35 23 57t56 22q34 0 57.5 -22t23.5 -57q0 -33 -23.5 -54.5t-57.5 -21.5q-33 0 -56 21.5t-23 54.5zM461 552q0 -75 -79 -139q-14 -11 -58.5 -43.5t-54.5 -40.5q-25 -21 -34 -39t-9 -47v-11l-2 -1q-88 29 -88 100q0 43 52 97q3 3 17 16.5t25.5 25t16.5 17.5 q44 49 44 102q0 46 -25.5 75t-61.5 29h-13q-21 0 -28 -16l-86 -202h-2l-78 181q123 57 240 57q107 0 165.5 -43.5t58.5 -117.5z"/>
<glyph glyph-name="at" horiz-adv-x="1004" unicode="@" d="M534 191q5 12 36.5 123.5t36.5 133.5q-10 14 -34 14q-59 0 -101 -82q-26 -52 -43.5 -121t-17.5 -129q0 -57 35 -57q39 0 88 118zM954 323q0 -135 -76 -233t-191 -98q-66 0 -109 35t-43 100q0 17 3 35l-3 1q-28 -80 -69.5 -125.5t-94.5 -45.5q-49 0 -83.5 40t-34.5 114 q0 139 78.5 248t181.5 109q69 0 100 -45l156 46l2 -2l-81 -322q-13 -55 -13 -85q0 -73 57 -73q69 0 135 88.5t66 214.5q0 156 -108.5 257t-281.5 101q-199 0 -337 -140.5t-138 -350.5q0 -126 60.5 -218.5t155 -136.5t206.5 -44q127 0 252 76l9 -16q-123 -79 -263 -79 q-85 0 -162.5 26t-140 75.5t-100 131.5t-37.5 185q0 219 144.5 364.5t352.5 145.5q183 0 295 -108t112 -271z"/>
<glyph glyph-name="A" horiz-adv-x="656" unicode="A" d="M258 589l-105 -324h206zM147 245l-26 -80q-3 -9 -3 -13q0 -7 11 -22l89 -128v-2h-237v2l96 128q16 21 23 42l139 426q4 16 4 17q0 7 -10 18l-59 68v2h235l187 -593q5 -17 20 -41l42 -67v-2h-296v2l48 67q7 10 2 27l-47 149h-218z"/>
<glyph glyph-name="B" horiz-adv-x="674" unicode="B" d="M272 663v-287h48q56 0 86 41.5t30 116.5q0 68 -29 108.5t-83 40.5h-34q-11 0 -14.5 -3.5t-3.5 -16.5zM321 356h-49v-316q0 -14 4 -17t20 -3h28q129 0 129 171q0 82 -31.5 123.5t-100.5 41.5zM15 703h358q120 0 186 -40t66 -121q0 -75 -55.5 -119t-151.5 -52v-2 q103 -2 166 -47t63 -125q0 -93 -69 -145t-188 -52h-375v2l67 63q9 9 9 24v525q0 15 -9 24l-67 63v2z"/>
<glyph glyph-name="C" horiz-adv-x="633" unicode="C" d="M586 694v-246h-2l-152 230q-10 16 -33 16h-14q-152 0 -152 -344q0 -341 154 -341h11q23 0 33 14l153 236h2v-251q-98 -18 -213 -18q-174 0 -260 95.5t-86 264.5q0 168 89 265.5t253 97.5q112 0 217 -19z"/>
<glyph glyph-name="D" horiz-adv-x="720" unicode="D" d="M293 20h21q95 0 135.5 82.5t40.5 250.5q0 166 -39.5 248t-129.5 82h-32q-11 0 -14 -3.5t-3 -15.5v-624q0 -14 3.5 -17t17.5 -3zM15 0v2l67 63q9 9 9 24v525q0 15 -9 24l-67 63v2h334q170 0 258 -89.5t88 -246.5q0 -174 -95.5 -270.5t-269.5 -96.5h-315z"/>
<glyph glyph-name="E" horiz-adv-x="607" unicode="E" d="M551 703v-242h-2l-129 206q-10 16 -28 16h-103q-11 0 -14 -3.5t-3 -16.5v-301h68q15 1 26 14l90 104h2v-255h-2l-90 104q-12 13 -27 13h-67v-302q0 -13 3 -16.5t14 -3.5h115q22 0 30 14l124 212h2v-246h-545v2l67 63q9 9 9 24v525q0 15 -9 24l-67 63v2h536z"/>
<glyph glyph-name="F" horiz-adv-x="575" unicode="F" d="M551 703v-242h-2l-129 206q-10 16 -28 16h-103q-11 0 -14 -3.5t-3 -15.5v-302h68q15 1 26 14l90 104h2v-255h-2l-90 104q-12 13 -27 13h-67v-247q0 -14 11 -23l92 -70v-2h-360v2l67 63q9 9 9 24v525q0 15 -9 24l-67 63v2h536z"/>
<glyph glyph-name="G" horiz-adv-x="692" unicode="G" d="M604 690v-245h-2l-156 233q-10 16 -31 16h-17q-165 0 -165 -332q0 -188 35 -268t110 -80q28 0 50 9q9 5 9 16v178q0 17 -9 28l-56 64v2h311v-2l-56 -64q-9 -11 -9 -28v-227l-152 27q-64 -27 -131 -27q-142 0 -225.5 96.5t-83.5 264.5q0 166 91.5 264t257.5 98 q124 0 229 -23z"/>
<glyph glyph-name="H" horiz-adv-x="776" unicode="H" d="M685 614v-525q0 -15 9 -24l66 -63v-2h-332v2l66 63q10 10 10 24v261h-232v-261q0 -15 10 -24l66 -63v-2h-333v2l67 63q9 9 9 24v525q0 15 -9 24l-67 63v2h333v-2l-66 -63q-10 -9 -10 -24v-244h232v244q0 15 -10 24l-66 63v2h332v-2l-66 -63q-9 -9 -9 -24z"/>
<glyph glyph-name="I" horiz-adv-x="364" unicode="I" d="M272 89q0 -15 10 -24l66 -63v-2h-333v2l67 63q9 9 9 24v525q0 15 -9 24l-67 63v2h333v-2l-66 -63q-10 -9 -10 -24v-525z"/>
<glyph glyph-name="J" horiz-adv-x="335" unicode="J" d="M77 59v555q0 15 -10 24l-66 63v2h333v-2l-66 -63q-10 -9 -10 -24v-496q0 -151 -81 -237.5t-234 -91.5l-1 2q135 69 135 268z"/>
<glyph glyph-name="K" horiz-adv-x="710" unicode="K" d="M639 95q13 -22 30 -37l58 -56v-2h-239l-208 343l209 227q8 10 8 13q0 5 -8 16l-76 102v2h310v-2l-166 -104q-31 -19 -51 -40l-92 -97zM272 614v-525q0 -15 10 -24l66 -63v-2h-333v2l67 63q9 9 9 24v525q0 15 -9 24l-67 63v2h333v-2l-66 -63q-10 -9 -10 -24z"/>
<glyph glyph-name="L" horiz-adv-x="581" unicode="L" d="M91 89v525q0 15 -9 24l-67 63v2h333v-2l-66 -63q-10 -9 -10 -24v-574q0 -13 3 -16.5t14 -3.5h94q20 0 29 14l139 226h2v-260h-538v2l67 63q9 9 9 24z"/>
<glyph glyph-name="M" horiz-adv-x="889" unicode="M" d="M797 89q0 -15 10 -24l66 -63v-2h-333v2l67 63q9 9 9 24v402q0 30 3 60l-226 -559h-2l-234 514q-15 31 -19 44v-382q0 -15 13 -33l101 -133v-2h-249v2l101 133q13 18 13 33v396q0 18 -9 29l-82 108v2h239l209 -456l184 456h215v-2l-66 -73q-10 -10 -10 -25v-514z"/>
<glyph glyph-name="N" horiz-adv-x="707" unicode="N" d="M607 0h-122l-345 534v-366q0 -15 12 -31l103 -135v-2h-249v2l100 134q13 17 13 32v378q0 20 -9 32l-100 123v2h236l340 -528v360q0 17 -12 32l-102 134v2h249v-2l-101 -134q-13 -18 -13 -32v-535z"/>
<glyph glyph-name="O" horiz-adv-x="732" unicode="O" d="M366 713q161 0 250 -92.5t89 -269.5q0 -176 -89 -268.5t-250 -92.5t-250 92.5t-89 268.5q0 177 89 269.5t250 92.5zM366 9q66 0 99.5 81t33.5 262t-33.5 261.5t-99.5 80.5t-99.5 -80.5t-33.5 -261.5t33.5 -262t99.5 -81z"/>
<glyph glyph-name="P" horiz-adv-x="651" unicode="P" d="M272 664v-383h46q60 0 94.5 55t34.5 150q0 90 -31.5 143.5t-87.5 53.5h-38q-12 0 -15 -3.5t-3 -15.5zM337 261h-65v-165q0 -16 11 -25l94 -69v-2h-362v2l67 63q9 9 9 24v525q0 15 -9 24l-67 63v2h347q56 0 102.5 -11t86.5 -34.5t62.5 -66t22.5 -100.5q0 -114 -80.5 -172 t-218.5 -58z"/>
<glyph glyph-name="Q" horiz-adv-x="732" unicode="Q" d="M366 9q66 0 99.5 81t33.5 262t-33.5 261.5t-99.5 80.5t-99.5 -80.5t-33.5 -261.5t33.5 -262t99.5 -81zM534 -236q-60 0 -143 25l-201 60q-45 14 -74 14q-26 0 -34 -1l-1 2l159 143q-103 31 -158 118.5t-55 225.5q0 177 89 269.5t250 92.5t250 -92.5t89 -269.5 q0 -176 -89 -268.5t-250 -92.5q-57 0 -105 12l-35 -31l224 -60q73 -20 134 -20q53 0 103 25l44 22l2 -1l-45 -80q-53 -93 -154 -93z"/>
<glyph glyph-name="R" horiz-adv-x="696" unicode="R" d="M272 664v-316h52q116 0 116 164q0 171 -112 171h-38q-12 0 -15 -3.5t-3 -15.5zM324 328h-52v-240q0 -15 10 -24l67 -62v-2h-334v2l67 63q9 9 9 24v525q0 15 -9 24l-67 63v2h386q101 0 166.5 -44t65.5 -136q0 -80 -57.5 -127.5t-161.5 -55.5v-2l129 -38l91 -216 q7 -18 27 -38l43 -44v-2h-234l-124 316q-6 12 -22 12z"/>
<glyph glyph-name="S" horiz-adv-x="566" unicode="S" d="M544 218q0 -102 -77 -165t-203 -63q-109 0 -205 28v239h2l132 -228q9 -16 22 -18q15 -2 42 -2q62 0 99 30t37 85q0 47 -31 75.5t-107 64.5l-31 15q-40 19 -68 36.5t-57.5 44t-45 63t-15.5 81.5q0 95 71 152t189 57q97 0 192 -23v-228h-2l-135 216q-8 12 -20 14 q-11 2 -29 2q-54 0 -86.5 -29t-32.5 -81q0 -44 29.5 -71t97.5 -60l37 -18q39 -19 62 -31.5t51.5 -33t44 -40.5t26.5 -49t11 -63z"/>
<glyph glyph-name="T" horiz-adv-x="634" unicode="T" d="M407 96q0 -16 11 -26l74 -68v-2h-350v2l74 68q11 11 11 26v587h-57q-12 0 -16.5 -2.5t-9.5 -13.5l-123 -234h-2v270h596v-270h-2l-123 234q-5 11 -9.5 13.5t-16.5 2.5h-57v-587z"/>
<glyph glyph-name="U" horiz-adv-x="673" unicode="U" d="M349 -10q-143 0 -207.5 57.5t-64.5 191.5v374q0 15 -10 24l-60 64v2h323v-2l-62 -64q-10 -9 -10 -24v-363q0 -118 38.5 -170t114.5 -52q72 0 112 57t40 169v281q0 18 -13 33l-98 133v2h243v-2l-98 -133q-13 -15 -13 -33v-279q0 -130 -55 -198t-180 -68z"/>
<glyph glyph-name="V" horiz-adv-x="631" unicode="V" d="M241 634q-8 -12 -3 -26l158 -497l132 425q3 8 3 13q0 6 -11 23l-89 129v2h236v-2l-95 -127q-16 -21 -23 -43l-165 -531h-140l-190 593q-7 22 -20 41l-42 67v2h297v-2z"/>
<glyph glyph-name="W" horiz-adv-x="1016" unicode="W" d="M629 0l-123 400l-127 -400h-140l-185 593q-5 17 -20 41l-42 67v2h296v-2l-48 -67q-7 -10 -2 -26l153 -496l104 325l-48 156q-6 19 -17 38l-39 70v2h291v-2l-48 -67q-8 -12 -3 -26l150 -495l131 423q3 9 3 14q0 9 -10 22l-90 129v2h237v-2l-95 -127q-18 -23 -24 -43 l-164 -531h-140z"/>
<glyph glyph-name="X" horiz-adv-x="710" unicode="X" d="M621 110q7 -10 30 -36l65 -72v-2h-340v2l47 61q10 13 1 26l-123 191l-97 -131q-9 -12 -9 -18q0 -5 5 -13l73 -116v-2h-276v2l140 110q34 28 53 53l99 133l-189 295q-12 18 -30 36l-65 72v2h340v-2l-47 -61q-10 -11 -1 -26l112 -175l86 115q9 12 9 18q0 3 -5 13l-74 116v2 h277v-2l-140 -110q-34 -27 -54 -53l-87 -117z"/>
<glyph glyph-name="Y" horiz-adv-x="640" unicode="Y" d="M415 267v-171q0 -16 11 -26l73 -68v-2h-349v2l74 68q10 10 10 26v154q0 15 -6 25l-165 316q-13 25 -27 43l-50 67v2h336v-2l-60 -69q-10 -12 -4 -24l146 -294l115 235q5 12 5 15q0 5 -8 16l-86 121v2h250v-2l-113 -121q-16 -16 -27 -37l-117 -238q-8 -16 -8 -38z"/>
<glyph glyph-name="Z" horiz-adv-x="627" unicode="Z" d="M582 0h-571v2l396 681h-183q-13 0 -18 -2t-9 -10l-143 -236h-2v268h560v-2l-397 -681h193q13 0 18 2t9 10l145 235h2v-267z"/>
<glyph glyph-name="bracketleft" horiz-adv-x="364" unicode="[" d="M188 641v-697q0 -9 2 -12t10 -5l154 -53v-2l-274 -12v865l274 -12v-2l-154 -53q-8 -2 -10 -5t-2 -12z"/>
<glyph glyph-name="backslash" horiz-adv-x="380" unicode="\" d="M329 -154l-297 886l19 6l297 -886z"/>
<glyph glyph-name="bracketright" horiz-adv-x="364" unicode="]" d="M177 -56v697q0 9 -2 12t-10 5l-155 53v2l274 12v-865l-274 12v2l155 53q8 2 10 5t2 12z"/>
<glyph glyph-name="asciicircum" d="M449 323l-18 -9l-162 354l-162 -354l-18 9l179 390h2z" unicode="^"/>
<glyph glyph-name="underscore" horiz-adv-x="500" unicode="_" d="M495 -91h-490v19h490v-19z"/>
<glyph glyph-name="grave" horiz-adv-x="339" unicode="`" d="M50 703h160l79 -165l-1 -1l-238 164v2z"/>
<glyph glyph-name="a" horiz-adv-x="513" unicode="a" d="M256 253q-38 0 -59.5 -29t-21.5 -74q0 -40 16.5 -62.5t42.5 -22.5q34 0 57 35v1l2 146q-18 6 -37 6zM456 301q0 -6 -0.5 -20.5t-0.5 -15.5l-6 -142v-10q0 -48 27 -48q19 0 28 18h2q0 -20 -8 -36q-27 -55 -98 -55q-45 0 -76 25.5t-33 71.5q-15 -44 -51.5 -70.5 t-84.5 -26.5q-58 0 -97 37.5t-39 103.5q0 70 50.5 110.5t117.5 40.5q68 0 106 -27l2 107v5q0 115 -73 115q-15 0 -18.5 -2t-8.5 -10l-81 -150h-2l-63 143q106 38 202 38q106 0 155 -46q50 -47 50 -156z"/>
<glyph glyph-name="b" horiz-adv-x="580" unicode="b" d="M288 423q-44 0 -75 -43v-323q22 -22 58 -22q113 0 113 212q0 176 -96 176zM213 729v-336q50 110 156 110q86 0 137 -68.5t51 -182.5q0 -115 -62 -187.5t-162 -72.5q-83 0 -124 54l-158 -54h-2v638q0 16 -9 25l-48 46v2z"/>
<glyph glyph-name="c" horiz-adv-x="471" unicode="c" d="M253 -8q-97 0 -165 65t-68 185q0 69 23 121.5t62 82t84.5 43.5t96.5 14q80 0 170 -30l-64 -172h-2l-77 171q-3 8 -6 10t-12 2h-5q-95 0 -95 -194q0 -106 38.5 -155t96.5 -49q80 0 123 82h2q-13 -83 -65 -129.5t-137 -46.5z"/>
<glyph glyph-name="d" horiz-adv-x="597" unicode="d" d="M297 67q41 0 70 38v309q-24 31 -65 31q-46 0 -76 -46.5t-30 -147.5q0 -96 27.5 -140t73.5 -44zM530 729v-654q0 -16 9 -24l50 -49v-2h-222v94q-44 -102 -147 -102q-88 0 -142.5 67t-54.5 187q0 115 60.5 186t154.5 71q93 0 129 -80v207q0 16 -10 25l-48 46v2z"/>
<glyph glyph-name="e" horiz-adv-x="513" unicode="e" d="M270 484q-39 0 -59 -45.5t-21 -150.5h147q1 13 1 30q0 93 -17.5 129.5t-50.5 36.5zM490 270h-300v-2q0 -92 40 -137.5t103 -45.5q106 0 152 92h2q-38 -185 -221 -185q-103 0 -174 64t-71 188q0 131 71 195t180 64q42 0 79 -11t69.5 -34t51.5 -65.5t19 -100.5 q0 -10 -1 -22z"/>
<glyph glyph-name="f" horiz-adv-x="343" unicode="f" d="M362 475h-122v-397q0 -10 2.5 -14t12.5 -11l74 -51v-2h-310v2l49 46q9 9 9 24v403h-53v20h53q0 115 49 166.5t144 51.5q78 0 158 -22l-63 -150h-2l-70 141q-4 9 -7 11t-10 2q-36 0 -36 -93v-107h122v-20z"/>
<glyph glyph-name="g" horiz-adv-x="525" unicode="g" d="M188 340q0 -80 16 -114t48 -34t48 33.5t16 113.5q0 79 -15.5 113t-48.5 34t-48.5 -33.5t-15.5 -112.5zM187 -50q-23 2 -35 4q-40 -24 -40 -64q0 -48 46 -76.5t108 -28.5q60 0 103.5 25t43.5 71q0 31 -21.5 47t-74.5 18zM34 337q0 82 59 124t156 42q85 0 137 -28 q11 -6 21 5l104 110l2 -1v-150h-94q51 -41 51 -108q0 -79 -59.5 -117.5t-158.5 -38.5q-48 0 -81 8q-31 -12 -31 -37q0 -44 102 -44h93q179 0 179 -133q0 -91 -80 -148t-202 -57q-82 0 -143.5 26.5t-61.5 74.5q0 32 28.5 56.5t87.5 33.5q-52 11 -80.5 40t-28.5 69q0 44 34 76 t92 46q-126 32 -126 151z"/>
<glyph glyph-name="h" horiz-adv-x="603" unicode="h" d="M545 292q0 -36 -1.5 -119.5t-1.5 -100.5q0 -15 10 -24l49 -46v-2h-280v2l47 46q10 9 10 23q0 3 1.5 86.5t1.5 111.5q0 75 -16.5 113t-59.5 38q-44 0 -75 -45v-303q0 -15 10 -24l49 -46v-2h-280v2l49 46q9 9 9 24v558q0 16 -9 25l-49 46v2l221 26v-343q41 117 159 117 q76 0 116 -54t40 -157z"/>
<glyph glyph-name="i" horiz-adv-x="310" unicode="i" d="M20 495h222v-423q0 -16 9 -24l49 -46v-2h-280v2l49 46q9 8 9 24v346q0 15 -9 25l-49 50v2zM157 550q-33 0 -56.5 20.5t-23.5 53.5q0 35 23.5 56.5t56.5 21.5q35 0 58 -21.5t23 -56.5q0 -33 -23 -53.5t-58 -20.5z"/>
<glyph glyph-name="j" horiz-adv-x="289" unicode="j" d="M71 624q0 35 24 56.5t57 21.5q35 0 58 -21.5t23 -56.5q0 -33 -23 -53.5t-58 -20.5q-33 0 -57 20.5t-24 53.5zM237 37q0 -126 -65 -194.5t-185 -69.5q-10 0 -15 1v2q101 20 101 205v437q0 15 -9 25l-49 50v2h222v-458z"/>
<glyph glyph-name="k" horiz-adv-x="571" unicode="k" d="M383 336l134 -264q9 -17 23 -31l42 -39v-2h-212l-111 236q-5 12 -18 12q-6 0 -11 -4v-172q0 -15 10 -24l49 -46v-2h-280v2l49 46q9 9 9 24v558q0 16 -9 25l-49 46v2l221 26v-474l162 121q11 8 2 20l-68 97v2h245v-2l-183 -139q-10 -7 -5 -18z"/>
<glyph glyph-name="l" horiz-adv-x="298" unicode="l" d="M230 729v-657q0 -15 10 -24l49 -46v-2h-280v2l49 46q9 9 9 24v558q0 16 -9 25l-49 46v2z"/>
<glyph glyph-name="m" horiz-adv-x="926" unicode="m" d="M868 292q0 -39 -1.5 -121t-1.5 -99q0 -15 10 -24l49 -46v-2h-280v2l47 46q10 10 10 23q0 4 1.5 87t1.5 111q0 75 -16.5 113t-60.5 38q-46 0 -79 -43q9 -38 9 -85q0 -36 -1.5 -119.5t-1.5 -100.5q0 -15 9 -24l50 -46v-2h-281v2l48 46q9 9 9 23q0 3 1.5 86.5t1.5 111.5 q0 75 -16 113t-60 38t-74 -44v-304q0 -16 9 -24l49 -46v-2h-280v2l49 46q9 8 9 24v346q0 15 -9 25l-49 50v2h222v-106q41 114 159 114q113 0 145 -118q18 52 62 85t105 33q75 0 115 -54t40 -157z"/>
<glyph glyph-name="n" horiz-adv-x="615" unicode="n" d="M557 292q0 -36 -1.5 -119.5t-1.5 -100.5q0 -15 9 -24l50 -46v-2h-281v2l48 46q9 9 9 23q0 3 1.5 86.5t1.5 111.5q0 75 -16 113t-60 38t-74 -44v-304q0 -16 9 -24l49 -46v-2h-280v2l49 46q9 8 9 24v346q0 15 -9 25l-49 50v2h222v-106q41 114 159 114q75 0 115.5 -54 t40.5 -157z"/>
<glyph glyph-name="o" horiz-adv-x="571" unicode="o" d="M285 -8q-122 0 -192.5 65.5t-70.5 190.5q0 123 71 189t192 66q122 0 193 -65.5t71 -190.5q0 -123 -71.5 -189t-192.5 -66zM285 484q-41 0 -61 -49.5t-20 -186.5q0 -136 20 -187t61 -51t61 50t20 187q0 136 -20 186.5t-61 50.5z"/>
<glyph glyph-name="p" horiz-adv-x="596" unicode="p" d="M304 423q-44 0 -75 -47v-301q23 -25 65 -25q43 0 74.5 49.5t31.5 150.5q0 173 -96 173zM66 -156v574q0 15 -9 25l-49 50v2h221v-106q49 114 155 114q84 0 136.5 -66.5t52.5 -178.5q0 -119 -60 -192.5t-152 -73.5q-103 0 -132 76v-218q0 -10 2.5 -14t12.5 -11l74 -51v-2 h-310v2l49 46q9 9 9 24z"/>
<glyph glyph-name="q" horiz-adv-x="580" unicode="q" d="M297 71q38 0 70 41v320q-30 21 -61 21q-46 0 -78 -47t-32 -153q0 -89 26.5 -135.5t74.5 -46.5zM367 -150v250q-46 -108 -153 -108q-79 0 -135 69t-56 183q0 120 62 189.5t154 69.5q84 0 129 -61l162 61v-659q0 -15 9 -24l46 -46v-2h-307v2l74 51q10 7 12.5 11t2.5 14z "/>
<glyph glyph-name="r" horiz-adv-x="428" unicode="r" d="M439 470l-55 -157h-2l-79 94q-9 11 -18 5q-19 -14 -43 -58v-270q0 -15 15 -25l98 -57v-2h-335v2l49 46q9 8 9 24v346q0 15 -9 25l-49 50v2h222v-128q14 59 47 97.5t82 38.5q43 0 68 -33z"/>
<glyph glyph-name="s" horiz-adv-x="456" unicode="s" d="M298 83q0 29 -20.5 46t-75.5 42l-68 32q-97 46 -97 142q0 72 55 115t150 43q88 0 176 -27l-56 -145h-2l-78 139q-9 15 -23 15h-14q-35 0 -58 -18t-23 -52q0 -31 21.5 -50t70.5 -41l64 -28q54 -23 82.5 -54t28.5 -84q0 -79 -61 -122.5t-163 -43.5q-96 0 -184 31l55 155h2 l80 -155q6 -13 21 -13h23q43 0 68.5 20t25.5 53z"/>
<glyph glyph-name="t" horiz-adv-x="338" unicode="t" d="M346 495v-20h-123v-334q0 -34 14 -52.5t39 -18.5q38 0 58 37l2 -1q-9 -48 -44.5 -81t-101.5 -33q-130 0 -130 137v346h-55v20h45q21 0 31 11l140 157h2v-168h123z"/>
<glyph glyph-name="u" horiz-adv-x="595" unicode="u" d="M527 495v-419q0 -17 9 -25l50 -49v-2h-223v107q-19 -53 -59 -84t-94 -31q-74 0 -113 53t-39 155q0 57 2 219q0 15 -9 24l-49 50v2h221l-1 -132v-140q0 -73 15 -111t54 -38q41 0 72 45v299q0 15 -9 25l-49 50v2h222z"/>
<glyph glyph-name="v" horiz-adv-x="471" unicode="v" d="M400 331l-112 -331h-114l-131 380q-13 36 -21 53l-31 60v2h250v-2l-34 -57q-7 -12 -3 -25l100 -302l77 225q4 11 4 17q0 5 -7 21l-59 121v2h172v-2l-68 -117q-18 -30 -23 -45z"/>
<glyph glyph-name="w" horiz-adv-x="773" unicode="w" d="M793 493l-68 -117q-16 -26 -22 -45l-114 -331h-112l-96 278l-96 -278h-113l-129 380q-14 39 -21 53l-31 60v2h249v-2l-34 -57q-7 -12 -3 -25l99 -303l69 200l-24 72q-11 33 -21 53l-31 60v2h249v-2l-34 -57q-7 -12 -3 -25l100 -302l76 225q4 11 4 18t-7 20l-58 121v2h171 v-2z"/>
<glyph glyph-name="x" horiz-adv-x="505" unicode="x" d="M308 297l144 -215q7 -10 28 -35l39 -45v-2h-273v2l38 46q8 10 -1 25l-77 114l-62 -77q-9 -12 -9 -16q0 -5 6 -14l51 -78v-2h-201v2l106 89q23 19 42 43l56 69l-139 208q-13 19 -30 38l-37 44v2h272v-2l-38 -47q-9 -10 1 -24l73 -109l57 72q9 12 9 16t-6 13l-51 79v2h202 v-2l-107 -89q-19 -16 -42 -43z"/>
<glyph glyph-name="y" horiz-adv-x="476" unicode="y" d="M408 329l-128 -310q-39 -93 -86 -166q-31 -48 -62.5 -68.5t-76.5 -20.5q-24 0 -47 10l37 175h2l99 -98q8 -8 12 -8q7 0 15 12q20 28 38 69l6 16l-186 472q-5 13 -15 33l-27 48v2h259v-2l-40 -55q-7 -10 -2 -23l101 -280l81 197q6 14 6 19q0 6 -6 18l-61 124v2h171v-2 l-65 -112q-13 -21 -25 -52z"/>
<glyph glyph-name="z" horiz-adv-x="475" unicode="z" d="M446 217h3l-12 -217h-424v2l267 474h-90q-13 0 -17 -2t-11 -13l-120 -175h-4v209h421v-2l-259 -474h95q13 0 17 2t11 13z"/>
<glyph glyph-name="braceleft" horiz-adv-x="353" unicode="{" d="M228 403v-8q0 -39 -26.5 -66t-73.5 -36v-1q47 -9 73.5 -35.5t26.5 -65.5v-8l-13 -175v-10q0 -52 30 -91.5t94 -39.5h4v-2q-35 -7 -64 -7q-72 0 -126 41t-54 119q0 2 0.5 8t0.5 8l14 182q2 29 -20.5 50t-58.5 26v1q36 5 58.5 26t20.5 50l-14 182q0 3 -0.5 8t-0.5 8 q0 78 54 119t126 41q29 0 64 -7v-2h-5q-63 0 -93 -39.5t-30 -90.5v-10z"/>
<glyph glyph-name="bar" horiz-adv-x="220" unicode="|" d="M120 -250h-20v1000h20v-1000z"/>
<glyph glyph-name="braceright" horiz-adv-x="353" unicode="}" d="M252 551l-13 -182q-1 -29 21 -50t58 -26v-1q-36 -5 -58.5 -26t-20.5 -50l13 -182q0 -2 0.5 -8t0.5 -8q0 -78 -53.5 -119t-125.5 -41q-29 0 -64 7v2h4q63 0 93.5 39t30.5 90v12l-14 175v9q0 38 27 64.5t74 35.5v1q-46 9 -73.5 36t-27.5 65v9l14 175v12q0 50 -30.5 89 t-92.5 39h-5v2q35 7 64 7q72 0 125.5 -41t53.5 -119q0 -3 -0.5 -8t-0.5 -8z"/>
<glyph glyph-name="asciitilde" horiz-adv-x="503" unicode="~" d="M365 276q-46 0 -116.5 33t-110.5 33q-61 0 -97 -58l-16 10q40 67 113 67q46 0 116.5 -33t110.5 -33q60 0 96 59l17 -11q-40 -67 -113 -67z"/>
<glyph glyph-name="uni00A0" horiz-adv-x="0" unicode=" "/>
<glyph glyph-name="exclamdown" horiz-adv-x="310" unicode="¡" d="M74 426q0 33 23.5 54.5t56.5 21.5q34 0 57.5 -21.5t23.5 -54.5q0 -35 -23.5 -57t-57.5 -22q-33 0 -56.5 22.5t-23.5 56.5zM37 -209l116 484h2l118 -484h-236z"/>
<glyph glyph-name="cent" horiz-adv-x="485" unicode="¢" d="M176 289q0 -147 96 -190v384q-41 -8 -68.5 -58.5t-27.5 -135.5zM291 -105h-19v98q-9 -1 -19 -1q-99 0 -165.5 64.5t-66.5 185.5q0 130 72.5 194t178.5 67v102h19v-102q84 -2 169 -28v-2l-67 -173h-2l-79 173q-4 10 -21 11v-392q19 -6 40 -6q85 0 125 82h2 q-11 -72 -54 -117.5t-113 -55.5v-100z"/>
<glyph glyph-name="sterling" horiz-adv-x="597" unicode="£" d="M444 315v-19h-163q1 -5 1 -14q0 -65 -29 -96.5t-79 -46.5v-2h257q30 0 40 3.5t24 19.5l62 67h2l-29 -227h-500v2l96 116q46 54 46 110q0 24 -20 68h-101v19h91q-4 7 -19.5 35t-22.5 41.5t-17 37.5t-14.5 45t-4.5 43q0 93 62 144.5t180 51.5t218 -22l-18 -218h-2l-128 204 q-8 13 -22 14q-2 0 -9 0.5t-11 0.5q-102 0 -102 -145q0 -47 22 -126t26 -106h164z"/>
<glyph glyph-name="currency" horiz-adv-x="664" unicode="¤" d="M331 139q93 0 155.5 58.5t62.5 154.5q0 95 -63 154.5t-155 59.5t-154 -59t-62 -155t62 -154.5t154 -58.5zM331 120q-96 0 -161 56l-112 -112l-14 14l112 111q-62 64 -62 163q0 97 62 162l-112 113l13 14l113 -113q67 57 161 57q95 0 162 -58l113 113l13 -13l-113 -113 q63 -65 63 -162q0 -96 -62 -161l112 -113l-13 -14l-113 113q-66 -57 -162 -57z"/>
<glyph glyph-name="yen" horiz-adv-x="652" unicode="¥" d="M418 160v-64q0 -16 11 -26l73 -68v-2h-349v2l74 68q10 10 10 26v64h-140v19h140v80h-140v19h132l-163 313q-13 25 -27 43l-50 67v2h336v-2l-60 -69q-10 -12 -4 -24l146 -294l115 235q5 12 5 15q0 5 -8 16l-86 121v2h250v-2l-113 -121q-19 -21 -27 -37l-117 -238 q-8 -15 -8 -27h144v-19h-144v-80h144v-19h-144z"/>
<glyph glyph-name="brokenbar" horiz-adv-x="220" unicode="¦" d="M120 322h-20v428h20v-428zM120 -250h-20v438h20v-438z"/>
<glyph glyph-name="section" horiz-adv-x="541" unicode="§" d="M300 320q-78 48 -99 64q-18 -8 -32 -27t-14 -43t21.5 -48.5t70.5 -57.5q10 -7 51.5 -33.5t47.5 -31.5q18 9 32 27.5t14 43.5q0 48 -92 106zM500 282q0 -57 -45 -95.5t-100 -48.5q107 -73 107 -167q0 -72 -56 -114.5t-138 -42.5q-100 0 -171 19l52 189h2l84 -173 q9 -18 30 -18h10q37 0 61.5 21.5t24.5 53.5t-29 60.5t-92 66.5l-42 25q-87 51 -119 91t-32 97t45.5 95t100.5 48q-108 73 -108 167q0 73 56 115t138 42q101 0 170 -19l-52 -188h-2l-83 172q-9 18 -30 18h-10q-37 0 -61.5 -21t-24.5 -53t28.5 -60t92.5 -67l41 -25 q88 -53 120 -93t32 -95z"/>
<glyph glyph-name="dieresis" horiz-adv-x="436" unicode="¨" d="M249 621q0 29 20 48t48 19q29 0 49 -19t20 -48q0 -28 -20 -47t-49 -19q-28 0 -48 19t-20 47zM50 621q0 29 20 48t49 19q28 0 48 -19t20 -48q0 -28 -20 -47t-48 -19q-29 0 -49 19t-20 47z"/>
<glyph glyph-name="copyright" horiz-adv-x="813" unicode="©" d="M346 351q0 -91 22 -141t63 -50h5q14 0 21 10l90 128h1v-144q-55 -11 -126 -11q-101 0 -152.5 55.5t-51.5 152.5q0 96 53.5 152.5t147.5 56.5q76 0 129 -12v-139h-1l-90 125q-8 9 -19 9h-7q-41 0 -63 -51.5t-22 -140.5zM62 351q0 -153 99 -247.5t245 -94.5t245.5 94.5 t99.5 247.5t-99.5 248t-245.5 95t-245 -95t-99 -248zM42 351q0 162 105 262t259 100t259.5 -100.5t105.5 -261.5q0 -162 -105 -261.5t-260 -99.5t-259.5 99.5t-104.5 261.5z"/>
<glyph glyph-name="ordfeminine" horiz-adv-x="402" unicode="ª" d="M183 418q22 0 38 21l2 96q-11 4 -26 4q-26 0 -40.5 -18t-14.5 -48q0 -27 11.5 -41t29.5 -14zM150 564q48 0 73 -17l2 72q2 75 -56 75q-12 0 -17 -8l-51 -97h-2l-42 98q69 26 137 26q73 0 105 -31q33 -32 33 -107v-14l-4 -107v-5q0 -34 20 -34q10 0 17 13h2q2 -13 -5 -26 q-20 -36 -66 -36q-30 0 -51 16.5t-24 45.5q-11 -28 -36 -45t-56 -17q-39 0 -65.5 25t-26.5 70q0 48 34 75.5t79 27.5z"/>
<glyph glyph-name="guillemotleft" horiz-adv-x="466" unicode="«" d="M214 252l223 230l2 -1l-92 -230l92 -229l-2 -1l-223 229v2zM27 252l223 230l2 -1l-92 -230l92 -229l-2 -1l-223 229v2z"/>
<glyph glyph-name="logicalnot" d="M498 109h-20v206h-441v19h461v-225z" unicode="¬"/>
<glyph glyph-name="uni00AD" horiz-adv-x="351" unicode="­" d="M46 237v20h260v-20h-260z"/>
<glyph glyph-name="registered" horiz-adv-x="813" unicode="®" d="M376 519v-159h30q57 0 57 83q0 88 -53 88h-21q-9 0 -11 -2.5t-2 -9.5zM229 168l36 33q5 4 5 15v282q0 10 -5 15l-36 33v2h220q55 0 91 -23.5t36 -73.5q0 -43 -32 -69t-89 -31v-2l72 -20l52 -117q5 -11 16 -20l27 -24v-2h-141l-65 171q-4 7 -12 7h-28v-128q0 -10 5 -15 l36 -33v-2h-188v2zM62 351q0 -153 99 -247.5t245 -94.5t245.5 94.5t99.5 247.5t-99.5 248t-245.5 95t-245 -95t-99 -248zM42 351q0 162 105 262t259 100t259.5 -100.5t105.5 -261.5q0 -162 -105 -261.5t-260 -99.5t-259.5 99.5t-104.5 261.5z"/>
<glyph glyph-name="macron" horiz-adv-x="381" unicode="¯" d="M331 592h-281v20h281v-20z"/>
<glyph glyph-name="degree" horiz-adv-x="324" unicode="°" d="M56 589q0 -43 31.5 -71.5t74.5 -28.5t74.5 28.5t31.5 71.5q0 45 -31.5 74t-74.5 29t-74.5 -29.5t-31.5 -73.5zM35 589q0 54 37 88t90 34t90 -34t37 -88q0 -53 -37 -86t-90 -33t-90 33t-37 86z"/>
<glyph glyph-name="plusminus" d="M50 105v19h441v-19h-441zM50 365v19h210v160h20v-160h211v-19h-211v-161h-20v161h-210z" unicode="±"/>
<glyph glyph-name="twosuperior" horiz-adv-x="312" unicode="²" d="M158 713q60 0 92.5 -22t32.5 -61q0 -46 -42 -76t-137 -63v-2h112q23 0 34 9l33 28h2l-18 -107h-250v2q59 55 84 84q4 4 16 18t17 19.5t15 17.5t14.5 20t10.5 18.5t8 20t2 18.5q0 61 -42 61q-17 0 -21 -8l-47 -98h-2l-48 96q58 25 134 25z"/>
<glyph glyph-name="threesuperior" horiz-adv-x="312" unicode="³" d="M291 501q0 -37 -39.5 -62t-106.5 -25q-74 0 -127 19l56 100h2l36 -95q3 -8 13 -8h14q23 0 38.5 18t15.5 51q0 61 -75 67v2q30 5 47.5 25t17.5 51q0 54 -39 54h-8q-11 0 -15 -8l-46 -93h-2l-48 91q61 25 131 25q125 0 125 -72q0 -53 -87 -68v-2q44 -2 70.5 -21t26.5 -49z "/>
<glyph glyph-name="acute" horiz-adv-x="339" unicode="´" d="M129 703h160v-2l-237 -165l-2 2z"/>
<glyph glyph-name="mu" horiz-adv-x="602" unicode="µ" d="M534 495v-421q0 -15 9 -24l50 -48v-2h-223v107q-13 -38 -38.5 -64.5t-58.5 -35.5q-17 -5 -45 -7v-148q0 -10 2.5 -14.5t12.5 -11.5l74 -52v-2h-310v2l51 46q9 9 9 24v577q0 15 -9 24l-49 48v2h219v-295q0 -68 15.5 -100t54.5 -32q43 0 72 52v300q0 15 -9 24l-49 49v2h222 z"/>
<glyph glyph-name="paragraph" horiz-adv-x="608" unicode="¶" d="M369 18h64v666h-64v-666zM64 348q0 92 25.5 162t69 111t97.5 61.5t116 20.5h160v-19h-79v-666h79v-18h-79v-250h-20v250h-61q-62 0 -116 19.5t-98 59t-69 109t-25 160.5z"/>
<glyph glyph-name="periodcentered" horiz-adv-x="242" unicode="·" d="M41 422q0 35 23 57t57 22t57 -22t23 -57q0 -33 -23.5 -54.5t-56.5 -21.5t-56.5 21.5t-23.5 54.5z"/>
<glyph glyph-name="cedilla" horiz-adv-x="361" unicode="¸" d="M298 -142q0 -41 -31.5 -67.5t-85.5 -26.5q-50 0 -87 26t-40 69l2 1q9 -29 34 -43.5t50 -14.5q27 0 45.5 14.5t18.5 41.5t-18.5 41.5t-46.5 14.5q-20 0 -38 -7l-1 2l74 88h2l-8 -57q15 3 28 3q44 0 73 -24.5t29 -60.5z"/>
<glyph glyph-name="onesuperior" horiz-adv-x="266" unicode="¹" d="M260 421v-2h-236v2l63 30q6 3 6 10v183q0 7 -6 8l-68 20v2l172 44v-257q0 -7 6 -10z"/>
<glyph glyph-name="ordmasculine" horiz-adv-x="423" unicode="º" d="M211 366q-82 0 -130 44.5t-48 129.5q0 84 48 128.5t130 44.5q83 0 131.5 -44.5t48.5 -129.5q0 -84 -48.5 -128.5t-131.5 -44.5zM211 695q-27 0 -41 -32.5t-14 -122.5q0 -89 14 -122.5t41 -33.5q29 0 42.5 32.5t13.5 122.5t-14 123t-42 33z"/>
<glyph glyph-name="guillemotright" horiz-adv-x="466" unicode="»" d="M439 250l-223 -229l-2 1l92 229l-92 230l2 1l223 -230v-2zM252 250l-223 -229l-2 1l92 229l-92 230l2 1l223 -230v-2z"/>
<glyph glyph-name="onequarter" horiz-adv-x="520" unicode="¼" d="M315 718v-257q0 -7 6 -10l63 -30v-2h-236v2l63 30q6 3 6 10v183q0 6 -6 8l-68 20v2zM132 86h110v148zM406 71h-74v-32q0 -6 6 -11l39 -26v-2h-181v2l41 26q5 3 5 11v32h-141v2l161 216h70v-203h16q10 0 15 8l48 81h2zM460 342h-400v19h400v-19z"/>
<glyph glyph-name="onehalf" horiz-adv-x="520" unicode="½" d="M263 294q60 0 92.5 -22t32.5 -61q0 -46 -42 -76t-137 -63v-2h112q23 0 34 9l33 28h2l-18 -107h-250v2q59 55 84 84q4 4 16 18t17 19.5t15 17.5t14.5 20t10.5 18.5t8 20t2 18.5q0 61 -42 61q-17 0 -21 -8l-47 -98h-2l-48 96q58 25 134 25zM315 718v-257q0 -7 6 -10l63 -30 v-2h-236v2l63 30q6 3 6 10v183q0 6 -6 8l-68 20v2zM460 361v-19h-400v19h400z"/>
<glyph glyph-name="threequarters" horiz-adv-x="520" unicode="¾" d="M460 342h-400v19h400v-19zM132 86h110v148zM396 501q0 -37 -39.5 -62t-106.5 -25q-74 0 -127 19l56 100h2l36 -95q3 -8 13 -8h14q22 0 38 18t16 51q0 61 -75 67v2q30 5 47.5 25t17.5 51q0 54 -39 54h-8q-11 0 -15 -8l-46 -93h-2l-48 91q61 25 131 25q125 0 125 -72 q0 -53 -87 -68v-2q44 -2 70.5 -21t26.5 -49zM406 71h-74v-32q0 -6 6 -11l39 -26v-2h-181v2l41 26q5 3 5 11v32h-141v2l161 216h70v-203h16q10 0 15 8l48 81h2z"/>
<glyph glyph-name="questiondown" horiz-adv-x="429" unicode="¿" d="M327 426q0 -35 -23 -57t-56 -22q-34 0 -57.5 22t-23.5 57q0 33 23.5 54.5t57.5 21.5q33 0 56 -21.5t23 -54.5zM232 262l2 1q88 -29 88 -100q0 -43 -52 -97l-59 -59q-44 -49 -44 -102q0 -46 25.5 -75t61.5 -29h13q21 0 28 16l86 202h2l78 -181q-123 -57 -240 -57 q-107 0 -165.5 43.5t-58.5 117.5q0 75 79 139q14 11 58.5 43.5t54.5 40.5q25 21 34 39t9 47v11z"/>
<glyph glyph-name="Agrave" horiz-adv-x="656" unicode="À" d="M143 911h160l79 -165l-1 -1l-238 164v2zM258 589l-105 -324h206zM147 245l-26 -80q-3 -9 -3 -13q0 -7 11 -22l89 -128v-2h-237v2l96 128q16 21 23 42l139 426q4 16 4 17q0 7 -10 18l-59 68v2h235l187 -593q5 -17 20 -41l42 -67v-2h-296v2l48 67q7 10 2 27l-47 149h-218z "/>
<glyph glyph-name="Aacute" horiz-adv-x="656" unicode="Á" d="M326 911h160v-2l-237 -165l-2 2zM258 589l-105 -324h206zM147 245l-26 -80q-3 -9 -3 -13q0 -7 11 -22l89 -128v-2h-237v2l96 128q16 21 23 42l139 426q4 16 4 17q0 7 -10 18l-59 68v2h235l187 -593q5 -17 20 -41l42 -67v-2h-296v2l48 67q7 10 2 27l-47 149h-218z"/>
<glyph glyph-name="Acircumflex" horiz-adv-x="656" unicode="Â" d="M477 744l-1 -1l-163 67l-163 -67l-1 1l163 175h2zM258 589l-105 -324h206zM147 245l-26 -80q-3 -9 -3 -13q0 -7 11 -22l89 -128v-2h-237v2l96 128q16 21 23 42l139 426q4 16 4 17q0 7 -10 18l-59 68v2h235l187 -593q5 -17 20 -41l42 -67v-2h-296v2l48 67q7 10 2 27 l-47 149h-218z"/>
<glyph glyph-name="Atilde" horiz-adv-x="656" unicode="Ã" d="M377 770q-27 0 -73 24.5t-68 24.5q-48 0 -64 -49h-2v24q0 46 23.5 74t60.5 28q27 0 73 -24.5t68 -24.5q48 0 65 49h2q0 -17 -1 -25q-2 -46 -25 -73.5t-59 -27.5zM258 589l-105 -324h206zM147 245l-26 -80q-3 -9 -3 -13q0 -7 11 -22l89 -128v-2h-237v2l96 128q16 21 23 42 l139 426q4 16 4 17q0 7 -10 18l-59 68v2h235l187 -593q5 -17 20 -41l42 -67v-2h-296v2l48 67q7 10 2 27l-47 149h-218z"/>
<glyph glyph-name="Adieresis" horiz-adv-x="656" unicode="Ä" d="M344 829q0 29 20 48t48 19q29 0 49 -19t20 -48q0 -28 -20 -47t-49 -19q-28 0 -48 19t-20 47zM145 829q0 29 20 48t49 19q28 0 48 -19t20 -48q0 -28 -20 -47t-48 -19q-29 0 -49 19t-20 47zM258 589l-105 -324h206zM147 245l-26 -80q-3 -9 -3 -13q0 -7 11 -22l89 -128v-2 h-237v2l96 128q16 21 23 42l139 426q4 16 4 17q0 7 -10 18l-59 68v2h235l187 -593q5 -17 20 -41l42 -67v-2h-296v2l48 67q7 10 2 27l-47 149h-218z"/>
<glyph glyph-name="Aring" horiz-adv-x="656" unicode="Å" d="M388 840q0 32 -21 52.5t-54 20.5q-31 0 -52 -20.5t-21 -52.5q0 -30 22 -51.5t52 -21.5q32 0 53 20.5t21 52.5zM409 839q0 -40 -27 -66t-68 -26q-37 0 -66 27t-29 65q0 40 27 67t67 27q42 0 69 -26t27 -68zM258 589l-105 -324h206zM147 245l-26 -80q-3 -9 -3 -13 q0 -7 11 -22l89 -128v-2h-237v2l96 128q16 21 23 42l139 426q4 16 4 17q0 7 -10 18l-59 68v2h235l187 -593q5 -17 20 -41l42 -67v-2h-296v2l48 67q7 10 2 27l-47 149h-218z"/>
<glyph glyph-name="AE" horiz-adv-x="947" unicode="Æ" d="M430 620l-219 -356h219v356zM900 246v-246h-546v2l66 63q10 9 10 24v156h-231l-47 -77q-10 -16 -10 -24q0 -5 8 -21l68 -121v-2h-246v2l115 119q32 33 40 46l266 433q7 10 7 15t-8 13l-69 73v2h567v-242h-2l-130 206q-10 16 -28 16h-103q-11 0 -13.5 -3.5t-2.5 -16.5 v-301h67q15 1 26 14l91 104h2v-255h-2l-91 104q-12 13 -26 13h-67v-302q0 -13 2.5 -16.5t13.5 -3.5h116q19 0 29 14l124 212h4z"/>
<glyph glyph-name="Ccedilla" horiz-adv-x="633" unicode="Ç" d="M487 -142q0 -41 -31.5 -67.5t-85.5 -26.5q-50 0 -87 26t-40 69l2 1q9 -29 34 -43.5t50 -14.5q27 0 45.5 14.5t18.5 41.5t-18.5 41.5t-46.5 14.5q-20 0 -38 -7l-1 2l68 82q-166 4 -248 99t-82 260q0 168 89 265.5t253 97.5q112 0 217 -19v-246h-2l-152 230q-10 16 -33 16 h-14q-152 0 -152 -344q0 -341 154 -341h11q23 0 33 14l153 236h2v-251q-98 -18 -213 -18q-1 0 -4 0.5t-5 0.5l-7 -51q15 3 28 3q44 0 73 -24.5t29 -60.5z"/>
<glyph glyph-name="Egrave" horiz-adv-x="607" unicode="È" d="M144 911h160l79 -165l-1 -1l-238 164v2zM551 703v-242h-2l-129 206q-10 16 -28 16h-103q-11 0 -14 -3.5t-3 -16.5v-301h68q15 1 26 14l90 104h2v-255h-2l-90 104q-12 13 -27 13h-67v-302q0 -13 3 -16.5t14 -3.5h115q22 0 30 14l124 212h2v-246h-545v2l67 63q9 9 9 24v525 q0 15 -9 24l-67 63v2h536z"/>
<glyph glyph-name="Eacute" horiz-adv-x="607" unicode="É" d="M551 703v-242h-2l-129 206q-10 16 -28 16h-103q-11 0 -14 -3.5t-3 -16.5v-301h68q15 1 26 14l90 104h2v-255h-2l-90 104q-12 13 -27 13h-67v-302q0 -13 3 -16.5t14 -3.5h115q22 0 30 14l124 212h2v-246h-545v2l67 63q9 9 9 24v525q0 15 -9 24l-67 63v2h536zM328 911h160 v-2l-237 -165l-2 2z"/>
<glyph glyph-name="Ecircumflex" horiz-adv-x="607" unicode="Ê" d="M551 703v-242h-2l-129 206q-10 16 -28 16h-103q-11 0 -14 -3.5t-3 -16.5v-301h68q15 1 26 14l90 104h2v-255h-2l-90 104q-12 13 -27 13h-67v-302q0 -13 3 -16.5t14 -3.5h115q22 0 30 14l124 212h2v-246h-545v2l67 63q9 9 9 24v525q0 15 -9 24l-67 63v2h536zM478 744 l-1 -1l-163 67l-163 -67l-1 1l163 175h2z"/>
<glyph glyph-name="Edieresis" horiz-adv-x="607" unicode="Ë" d="M551 703v-242h-2l-129 206q-10 16 -28 16h-103q-11 0 -14 -3.5t-3 -16.5v-301h68q15 1 26 14l90 104h2v-255h-2l-90 104q-12 13 -27 13h-67v-302q0 -13 3 -16.5t14 -3.5h115q22 0 30 14l124 212h2v-246h-545v2l67 63q9 9 9 24v525q0 15 -9 24l-67 63v2h536zM345 829 q0 29 20 48t48 19q29 0 49 -19t20 -48q0 -28 -20 -47t-49 -19q-28 0 -48 19t-20 47zM146 829q0 29 20 48t49 19q28 0 48 -19t20 -48q0 -28 -20 -47t-48 -19q-29 0 -49 19t-20 47z"/>
<glyph glyph-name="Igrave" horiz-adv-x="364" unicode="Ì" d="M12 911h160l79 -165l-1 -1l-238 164v2zM272 89q0 -15 10 -24l66 -63v-2h-333v2l67 63q9 9 9 24v525q0 15 -9 24l-67 63v2h333v-2l-66 -63q-10 -9 -10 -24v-525z"/>
<glyph glyph-name="Iacute" horiz-adv-x="364" unicode="Í" d="M194 911h160v-2l-237 -165l-2 2zM272 89q0 -15 10 -24l66 -63v-2h-333v2l67 63q9 9 9 24v525q0 15 -9 24l-67 63v2h333v-2l-66 -63q-10 -9 -10 -24v-525z"/>
<glyph glyph-name="Icircumflex" horiz-adv-x="364" unicode="Î" d="M346 744l-1 -1l-163 67l-163 -67l-1 1l163 175h2zM272 89q0 -15 10 -24l66 -63v-2h-333v2l67 63q9 9 9 24v525q0 15 -9 24l-67 63v2h333v-2l-66 -63q-10 -9 -10 -24v-525z"/>
<glyph glyph-name="Idieresis" horiz-adv-x="364" unicode="Ï" d="M213 829q0 29 20 48t48 19q29 0 49 -19t20 -48q0 -28 -20 -47t-49 -19q-28 0 -48 19t-20 47zM14 829q0 29 20 48t49 19q28 0 48 -19t20 -48q0 -28 -20 -47t-48 -19q-29 0 -49 19t-20 47zM272 89q0 -15 10 -24l66 -63v-2h-333v2l67 63q9 9 9 24v525q0 15 -9 24l-67 63v2 h333v-2l-66 -63q-10 -9 -10 -24v-525z"/>
<glyph glyph-name="Eth" horiz-adv-x="735" unicode="Ð" d="M336 683h-32q-11 0 -14 -3.5t-3 -15.5v-296h106v-18h-106v-310q0 -14 3.5 -17t17.5 -3h21q93 0 134 82.5t41 250.5q0 166 -39 248t-129 82zM16 350v18h90v245q0 17 -10 26l-67 62v2h334q171 0 259 -88.5t88 -244.5q0 -173 -96 -271.5t-269 -98.5h-316v2l67 62q10 9 10 27 v259h-90z"/>
<glyph glyph-name="Ntilde" horiz-adv-x="707" unicode="Ñ" d="M419 770q-27 0 -73 24.5t-68 24.5q-48 0 -64 -49h-2v24q0 46 23.5 74t60.5 28q27 0 73 -24.5t68 -24.5q48 0 65 49h2q0 -17 -1 -25q-2 -46 -25 -73.5t-59 -27.5zM607 0h-122l-345 534v-366q0 -15 12 -31l103 -135v-2h-249v2l100 134q13 17 13 32v378q0 20 -9 32l-100 123 v2h236l340 -528v360q0 17 -12 32l-102 134v2h249v-2l-101 -134q-13 -18 -13 -32v-535z"/>
<glyph glyph-name="Ograve" horiz-adv-x="732" unicode="Ò" d="M196 911h160l79 -165l-1 -1l-238 164v2zM366 713q161 0 250 -92.5t89 -269.5q0 -176 -89 -268.5t-250 -92.5t-250 92.5t-89 268.5q0 177 89 269.5t250 92.5zM366 9q66 0 99.5 81t33.5 262t-33.5 261.5t-99.5 80.5t-99.5 -80.5t-33.5 -261.5t33.5 -262t99.5 -81z"/>
<glyph glyph-name="Oacute" horiz-adv-x="732" unicode="Ó" d="M366 713q161 0 250 -92.5t89 -269.5q0 -176 -89 -268.5t-250 -92.5t-250 92.5t-89 268.5q0 177 89 269.5t250 92.5zM366 9q66 0 99.5 81t33.5 262t-33.5 261.5t-99.5 80.5t-99.5 -80.5t-33.5 -261.5t33.5 -262t99.5 -81zM379 911h160v-2l-237 -165l-2 2z"/>
<glyph glyph-name="Ocircumflex" horiz-adv-x="732" unicode="Ô" d="M366 713q161 0 250 -92.5t89 -269.5q0 -176 -89 -268.5t-250 -92.5t-250 92.5t-89 268.5q0 177 89 269.5t250 92.5zM366 9q66 0 99.5 81t33.5 262t-33.5 261.5t-99.5 80.5t-99.5 -80.5t-33.5 -261.5t33.5 -262t99.5 -81zM530 744l-1 -1l-163 67l-163 -67l-1 1l163 175h2z "/>
<glyph glyph-name="Otilde" horiz-adv-x="732" unicode="Õ" d="M429 770q-27 0 -73 24.5t-68 24.5q-48 0 -64 -49h-2v24q0 46 23.5 74t60.5 28q27 0 73 -24.5t68 -24.5q48 0 65 49h2q0 -17 -1 -25q-2 -46 -25 -73.5t-59 -27.5zM366 713q161 0 250 -92.5t89 -269.5q0 -176 -89 -268.5t-250 -92.5t-250 92.5t-89 268.5q0 177 89 269.5 t250 92.5zM366 9q66 0 99.5 81t33.5 262t-33.5 261.5t-99.5 80.5t-99.5 -80.5t-33.5 -261.5t33.5 -262t99.5 -81z"/>
<glyph glyph-name="Odieresis" horiz-adv-x="732" unicode="Ö" d="M366 713q161 0 250 -92.5t89 -269.5q0 -176 -89 -268.5t-250 -92.5t-250 92.5t-89 268.5q0 177 89 269.5t250 92.5zM366 9q66 0 99.5 81t33.5 262t-33.5 261.5t-99.5 80.5t-99.5 -80.5t-33.5 -261.5t33.5 -262t99.5 -81zM396 829q0 29 20 48t48 19q29 0 49 -19t20 -48 q0 -28 -20 -47t-49 -19q-28 0 -48 19t-20 47zM197 829q0 29 20 48t49 19q28 0 48 -19t20 -48q0 -28 -20 -47t-48 -19q-29 0 -49 19t-20 47z"/>
<glyph glyph-name="multiply" d="M122 161l-14 14l148 148l-148 149l14 14l148 -149l148 149l14 -14l-148 -149l148 -148l-14 -14l-148 148z" unicode="×"/>
<glyph glyph-name="Oslash" horiz-adv-x="732" unicode="Ø" d="M366 9q66 0 99.5 81t33.5 262q0 136 -20 218l-212 -481q31 -80 99 -80zM233 352q0 -156 25 -237l213 482q-31 97 -105 97q-66 0 -99.5 -80.5t-33.5 -261.5zM366 713q79 0 145 -25l41 92l17 -7l-41 -92q177 -78 177 -330q0 -176 -89 -268.5t-250 -92.5q-74 0 -134 20 l-40 -91l-18 7l40 90q-90 36 -138.5 121t-48.5 214q0 177 89 269.5t250 92.5z"/>
<glyph glyph-name="Ugrave" horiz-adv-x="673" unicode="Ù" d="M206 911h160l79 -165l-1 -1l-238 164v2zM349 -10q-143 0 -207.5 57.5t-64.5 191.5v374q0 15 -10 24l-60 64v2h323v-2l-62 -64q-10 -9 -10 -24v-363q0 -118 38.5 -170t114.5 -52q72 0 112 57t40 169v281q0 18 -13 33l-98 133v2h243v-2l-98 -133q-13 -15 -13 -33v-279 q0 -130 -55 -198t-180 -68z"/>
<glyph glyph-name="Uacute" horiz-adv-x="673" unicode="Ú" d="M349 -10q-143 0 -207.5 57.5t-64.5 191.5v374q0 15 -10 24l-60 64v2h323v-2l-62 -64q-10 -9 -10 -24v-363q0 -118 38.5 -170t114.5 -52q72 0 112 57t40 169v281q0 18 -13 33l-98 133v2h243v-2l-98 -133q-13 -15 -13 -33v-279q0 -130 -55 -198t-180 -68zM389 911h160v-2 l-237 -165l-2 2z"/>
<glyph glyph-name="Ucircumflex" horiz-adv-x="673" unicode="Û" d="M349 -10q-143 0 -207.5 57.5t-64.5 191.5v374q0 15 -10 24l-60 64v2h323v-2l-62 -64q-10 -9 -10 -24v-363q0 -118 38.5 -170t114.5 -52q72 0 112 57t40 169v281q0 18 -13 33l-98 133v2h243v-2l-98 -133q-13 -15 -13 -33v-279q0 -130 -55 -198t-180 -68zM540 744l-1 -1 l-163 67l-163 -67l-1 1l163 175h2z"/>
<glyph glyph-name="Udieresis" horiz-adv-x="673" unicode="Ü" d="M349 -10q-143 0 -207.5 57.5t-64.5 191.5v374q0 15 -10 24l-60 64v2h323v-2l-62 -64q-10 -9 -10 -24v-363q0 -118 38.5 -170t114.5 -52q72 0 112 57t40 169v281q0 18 -13 33l-98 133v2h243v-2l-98 -133q-13 -15 -13 -33v-279q0 -130 -55 -198t-180 -68zM407 829 q0 29 20 48t48 19q29 0 49 -19t20 -48q0 -28 -20 -47t-49 -19q-28 0 -48 19t-20 47zM208 829q0 29 20 48t49 19q28 0 48 -19t20 -48q0 -28 -20 -47t-48 -19q-29 0 -49 19t-20 47z"/>
<glyph glyph-name="Yacute" horiz-adv-x="640" unicode="Ý" d="M369 911h160v-2l-237 -165l-2 2zM415 267v-171q0 -16 11 -26l73 -68v-2h-349v2l74 68q10 10 10 26v154q0 15 -6 25l-165 316q-13 25 -27 43l-50 67v2h336v-2l-60 -69q-10 -12 -4 -24l146 -294l115 235q5 12 5 15q0 5 -8 16l-86 121v2h250v-2l-113 -121q-16 -16 -27 -37 l-117 -238q-8 -16 -8 -38z"/>
<glyph glyph-name="Thorn" horiz-adv-x="652" unicode="Þ" d="M272 172h50q59 0 94 53.5t35 144.5q0 90 -34 143.5t-95 53.5h-50v-395zM637 374q0 -110 -81 -166t-218 -56h-66v-57q0 -15 10 -24l86 -69v-2h-353v2l67 63q9 9 9 24v525q0 15 -9 24l-67 63v2h257v-116h91q55 0 102 -11t86.5 -34.5t62.5 -66.5t23 -101z"/>
<glyph glyph-name="germandbls" horiz-adv-x="653" unicode="ß" d="M17 475v20h60q6 119 69.5 168.5t183.5 49.5q89 0 149 -32.5t60 -86.5t-75 -98q-32 -17 -51 -34q-27 -21 -27 -48q0 -37 73 -74l84 -44q51 -27 76 -59t25 -80q0 -77 -57.5 -121t-149.5 -44q-91 0 -174 33l59 147h2l72 -150q5 -12 30 -12h13q34 0 54.5 22t20.5 54 q0 44 -63 80l-86 49q-82 47 -82 110q0 32 16 55t53 54l36 30q52 43 52 122q0 51 -28 80t-73 29q-99 0 -99 -154v-541h-221v2l49 46q9 9 9 24v403h-60z"/>
<glyph glyph-name="agrave" horiz-adv-x="513" unicode="à" d="M81 703h160l79 -165l-1 -1l-238 164v2zM256 253q-38 0 -59.5 -29t-21.5 -74q0 -40 16.5 -62.5t42.5 -22.5q34 0 57 35v1l2 146q-18 6 -37 6zM456 301q0 -6 -0.5 -20.5t-0.5 -15.5l-6 -142v-10q0 -48 27 -48q19 0 28 18h2q0 -20 -8 -36q-27 -55 -98 -55q-45 0 -76 25.5 t-33 71.5q-15 -44 -51.5 -70.5t-84.5 -26.5q-58 0 -97 37.5t-39 103.5q0 70 50.5 110.5t117.5 40.5q68 0 106 -27l2 107v5q0 115 -73 115q-15 0 -18.5 -2t-8.5 -10l-81 -150h-2l-63 143q106 38 202 38q106 0 155 -46q50 -47 50 -156z"/>
<glyph glyph-name="aacute" horiz-adv-x="513" unicode="á" d="M264 703h160v-2l-237 -165l-2 2zM256 253q-38 0 -59.5 -29t-21.5 -74q0 -40 16.5 -62.5t42.5 -22.5q34 0 57 35v1l2 146q-18 6 -37 6zM456 301q0 -6 -0.5 -20.5t-0.5 -15.5l-6 -142v-10q0 -48 27 -48q19 0 28 18h2q0 -20 -8 -36q-27 -55 -98 -55q-45 0 -76 25.5t-33 71.5 q-15 -44 -51.5 -70.5t-84.5 -26.5q-58 0 -97 37.5t-39 103.5q0 70 50.5 110.5t117.5 40.5q68 0 106 -27l2 107v5q0 115 -73 115q-15 0 -18.5 -2t-8.5 -10l-81 -150h-2l-63 143q106 38 202 38q106 0 155 -46q50 -47 50 -156z"/>
<glyph glyph-name="acircumflex" horiz-adv-x="513" unicode="â" d="M415 536l-1 -1l-163 67l-163 -67l-1 1l163 175h2zM256 253q-38 0 -59.5 -29t-21.5 -74q0 -40 16.5 -62.5t42.5 -22.5q34 0 57 35v1l2 146q-18 6 -37 6zM456 301q0 -6 -0.5 -20.5t-0.5 -15.5l-6 -142v-10q0 -48 27 -48q19 0 28 18h2q0 -20 -8 -36q-27 -55 -98 -55 q-45 0 -76 25.5t-33 71.5q-15 -44 -51.5 -70.5t-84.5 -26.5q-58 0 -97 37.5t-39 103.5q0 70 50.5 110.5t117.5 40.5q68 0 106 -27l2 107v5q0 115 -73 115q-15 0 -18.5 -2t-8.5 -10l-81 -150h-2l-63 143q106 38 202 38q106 0 155 -46q50 -47 50 -156z"/>
<glyph glyph-name="atilde" horiz-adv-x="513" unicode="ã" d="M315 562q-27 0 -73 24.5t-68 24.5q-48 0 -64 -49h-2v24q0 46 23.5 74t60.5 28q27 0 73 -24.5t68 -24.5q48 0 65 49h2q0 -17 -1 -25q-2 -46 -25 -73.5t-59 -27.5zM256 253q-38 0 -59.5 -29t-21.5 -74q0 -40 16.5 -62.5t42.5 -22.5q34 0 57 35v1l2 146q-18 6 -37 6z M456 301q0 -6 -0.5 -20.5t-0.5 -15.5l-6 -142v-10q0 -48 27 -48q19 0 28 18h2q0 -20 -8 -36q-27 -55 -98 -55q-45 0 -76 25.5t-33 71.5q-15 -44 -51.5 -70.5t-84.5 -26.5q-58 0 -97 37.5t-39 103.5q0 70 50.5 110.5t117.5 40.5q68 0 106 -27l2 107v5q0 115 -73 115 q-15 0 -18.5 -2t-8.5 -10l-81 -150h-2l-63 143q106 38 202 38q106 0 155 -46q50 -47 50 -156z"/>
<glyph glyph-name="adieresis" horiz-adv-x="513" unicode="ä" d="M282 621q0 29 20 48t48 19q29 0 49 -19t20 -48q0 -28 -20 -47t-49 -19q-28 0 -48 19t-20 47zM83 621q0 29 20 48t49 19q28 0 48 -19t20 -48q0 -28 -20 -47t-48 -19q-29 0 -49 19t-20 47zM256 253q-38 0 -59.5 -29t-21.5 -74q0 -40 16.5 -62.5t42.5 -22.5q34 0 57 35v1 l2 146q-18 6 -37 6zM456 301q0 -6 -0.5 -20.5t-0.5 -15.5l-6 -142v-10q0 -48 27 -48q19 0 28 18h2q0 -20 -8 -36q-27 -55 -98 -55q-45 0 -76 25.5t-33 71.5q-15 -44 -51.5 -70.5t-84.5 -26.5q-58 0 -97 37.5t-39 103.5q0 70 50.5 110.5t117.5 40.5q68 0 106 -27l2 107v5 q0 115 -73 115q-15 0 -18.5 -2t-8.5 -10l-81 -150h-2l-63 143q106 38 202 38q106 0 155 -46q50 -47 50 -156z"/>
<glyph glyph-name="aring" horiz-adv-x="513" unicode="å" d="M326 632q0 32 -21 52.5t-54 20.5q-31 0 -52 -20.5t-21 -52.5q0 -30 22 -51.5t52 -21.5q32 0 53 20.5t21 52.5zM347 631q0 -40 -27 -66t-68 -26q-37 0 -66 27t-29 65q0 40 27 67t67 27q42 0 69 -26t27 -68zM256 253q-38 0 -59.5 -29t-21.5 -74q0 -40 16.5 -62.5 t42.5 -22.5q34 0 57 35v1l2 146q-18 6 -37 6zM456 301q0 -6 -0.5 -20.5t-0.5 -15.5l-6 -142v-10q0 -48 27 -48q19 0 28 18h2q0 -20 -8 -36q-27 -55 -98 -55q-45 0 -76 25.5t-33 71.5q-15 -44 -51.5 -70.5t-84.5 -26.5q-58 0 -97 37.5t-39 103.5q0 70 50.5 110.5t117.5 40.5 q68 0 106 -27l2 107v5q0 115 -73 115q-15 0 -18.5 -2t-8.5 -10l-81 -150h-2l-63 143q106 38 202 38q106 0 155 -46q50 -47 50 -156z"/>
<glyph glyph-name="ae" horiz-adv-x="784" unicode="æ" d="M245 64q50 0 79 46q-30 55 -30 130v7q-18 6 -38 6q-38 0 -59.5 -28.5t-21.5 -72.5q0 -41 19.5 -64.5t50.5 -23.5zM541 484q-38 0 -58.5 -45t-21.5 -151h148v23q0 98 -17 135.5t-51 37.5zM761 270h-300v-3q0 -92 40.5 -137t103.5 -45q105 0 151 92h2q-37 -185 -220 -185 q-66 0 -122 28t-88 83q-10 -43 -52 -77t-109 -34q-64 0 -106 37.5t-42 104.5q0 70 50.5 110t115.5 40q64 0 108 -26q0 7 1 54.5t1 55.5q0 115 -74 115q-14 0 -17.5 -2t-8.5 -10l-81 -149h-2l-64 145q105 36 198 36q86 0 133 -46l12 -14q62 60 153 60q42 0 79 -11t69 -34 t51 -65.5t19 -100.5q0 -11 -1 -22z"/>
<glyph glyph-name="ccedilla" horiz-adv-x="471" unicode="ç" d="M368 -142q0 -41 -31.5 -67.5t-85.5 -26.5q-50 0 -87 26t-40 69l2 1q9 -29 34 -43.5t50 -14.5q27 0 45.5 14.5t18.5 41.5t-18.5 41.5t-46.5 14.5q-20 0 -38 -7l-1 2l70 83q-93 5 -156.5 69.5t-63.5 180.5q0 69 23 121.5t62 82t84.5 43.5t96.5 14q80 0 170 -30l-64 -172h-2 l-77 171q-3 8 -6 10t-12 2h-5q-95 0 -95 -194q0 -106 38.5 -155t96.5 -49q80 0 123 82h2q-13 -83 -65 -129.5t-137 -46.5h-8l-7 -52q15 3 28 3q44 0 73 -24.5t29 -60.5z"/>
<glyph glyph-name="egrave" horiz-adv-x="513" unicode="è" d="M102 703h160l79 -165l-1 -1l-238 164v2zM270 484q-39 0 -59 -45.5t-21 -150.5h147q1 13 1 30q0 93 -17.5 129.5t-50.5 36.5zM490 270h-300v-2q0 -92 40 -137.5t103 -45.5q106 0 152 92h2q-38 -185 -221 -185q-103 0 -174 64t-71 188q0 131 71 195t180 64q42 0 79 -11 t69.5 -34t51.5 -65.5t19 -100.5q0 -10 -1 -22z"/>
<glyph glyph-name="eacute" horiz-adv-x="513" unicode="é" d="M270 484q-39 0 -59 -45.5t-21 -150.5h147q1 13 1 30q0 93 -17.5 129.5t-50.5 36.5zM490 270h-300v-2q0 -92 40 -137.5t103 -45.5q106 0 152 92h2q-38 -185 -221 -185q-103 0 -174 64t-71 188q0 131 71 195t180 64q42 0 79 -11t69.5 -34t51.5 -65.5t19 -100.5 q0 -10 -1 -22zM285 703h160v-2l-237 -165l-2 2z"/>
<glyph glyph-name="ecircumflex" horiz-adv-x="513" unicode="ê" d="M270 484q-39 0 -59 -45.5t-21 -150.5h147q1 13 1 30q0 93 -17.5 129.5t-50.5 36.5zM490 270h-300v-2q0 -92 40 -137.5t103 -45.5q106 0 152 92h2q-38 -185 -221 -185q-103 0 -174 64t-71 188q0 131 71 195t180 64q42 0 79 -11t69.5 -34t51.5 -65.5t19 -100.5 q0 -10 -1 -22zM436 536l-1 -1l-163 67l-163 -67l-1 1l163 175h2z"/>
<glyph glyph-name="edieresis" horiz-adv-x="513" unicode="ë" d="M270 484q-39 0 -59 -45.5t-21 -150.5h147q1 13 1 30q0 93 -17.5 129.5t-50.5 36.5zM490 270h-300v-2q0 -92 40 -137.5t103 -45.5q106 0 152 92h2q-38 -185 -221 -185q-103 0 -174 64t-71 188q0 131 71 195t180 64q42 0 79 -11t69.5 -34t51.5 -65.5t19 -100.5 q0 -10 -1 -22zM302 621q0 29 20 48t48 19q29 0 49 -19t20 -48q0 -28 -20 -47t-49 -19q-28 0 -48 19t-20 47zM103 621q0 29 20 48t49 19q28 0 48 -19t20 -48q0 -28 -20 -47t-48 -19q-29 0 -49 19t-20 47z"/>
<glyph glyph-name="igrave" horiz-adv-x="310" unicode="ì" d="M-15 703h160l79 -165l-1 -1l-238 164v2zM242 495v-423q0 -14 10 -24l49 -46v-2h-280v2l49 46q9 9 9 24v346q0 15 -9 25l-49 50v2h221z"/>
<glyph glyph-name="iacute" horiz-adv-x="310" unicode="í" d="M242 495v-423q0 -14 10 -24l49 -46v-2h-280v2l49 46q9 9 9 24v346q0 15 -9 25l-49 50v2h221zM167 703h160v-2l-237 -165l-2 2z"/>
<glyph glyph-name="icircumflex" horiz-adv-x="310" unicode="î" d="M242 495v-423q0 -14 10 -24l49 -46v-2h-280v2l49 46q9 9 9 24v346q0 15 -9 25l-49 50v2h221zM314 536l-1 -1l-163 67l-163 -67l-1 1l163 175h2z"/>
<glyph glyph-name="idieresis" horiz-adv-x="310" unicode="ï" d="M242 495v-423q0 -14 10 -24l49 -46v-2h-280v2l49 46q9 9 9 24v346q0 15 -9 25l-49 50v2h221zM181 621q0 29 20 48t48 19q29 0 49 -19t20 -48q0 -28 -20 -47t-49 -19q-28 0 -48 19t-20 47zM-18 621q0 29 20 48t49 19q28 0 48 -19t20 -48q0 -28 -20 -47t-48 -19 q-29 0 -49 19t-20 47z"/>
<glyph glyph-name="eth" horiz-adv-x="562" unicode="ð" d="M369 275q0 75 -11 143q-25 29 -63 29q-91 0 -91 -216q0 -220 79 -220q86 0 86 264zM118 711v2q4 0 14 -1h9q121 -7 207 -58l120 66l9 -17l-111 -60q86 -56 129.5 -149.5t43.5 -207.5q0 -294 -265 -294q-111 0 -181 67t-70 188q0 112 62.5 180t148.5 68q79 0 120 -60 q-20 101 -67 166l-126 -68l-8 16l123 66q-58 71 -158 96z"/>
<glyph glyph-name="ntilde" horiz-adv-x="615" unicode="ñ" d="M376 562q-27 0 -73 24.5t-68 24.5q-48 0 -64 -49h-2v24q0 46 23.5 74t60.5 28q27 0 73 -24.5t68 -24.5q48 0 65 49h2q0 -17 -1 -25q-2 -46 -25 -73.5t-59 -27.5zM557 292q0 -36 -1.5 -119.5t-1.5 -100.5q0 -15 9 -24l50 -46v-2h-281v2l48 46q9 9 9 23q0 3 1.5 86.5 t1.5 111.5q0 75 -16 113t-60 38t-74 -44v-304q0 -16 9 -24l49 -46v-2h-280v2l49 46q9 8 9 24v346q0 15 -9 25l-49 50v2h222v-106q41 114 159 114q75 0 115.5 -54t40.5 -157z"/>
<glyph glyph-name="ograve" horiz-adv-x="571" unicode="ò" d="M115 703h160l79 -165l-1 -1l-238 164v2zM285 -8q-122 0 -192.5 65.5t-70.5 190.5q0 123 71 189t192 66q122 0 193 -65.5t71 -190.5q0 -123 -71.5 -189t-192.5 -66zM285 484q-41 0 -61 -49.5t-20 -186.5q0 -136 20 -187t61 -51t61 50t20 187q0 136 -20 186.5t-61 50.5z "/>
<glyph glyph-name="oacute" horiz-adv-x="571" unicode="ó" d="M285 -8q-122 0 -192.5 65.5t-70.5 190.5q0 123 71 189t192 66q122 0 193 -65.5t71 -190.5q0 -123 -71.5 -189t-192.5 -66zM285 484q-41 0 -61 -49.5t-20 -186.5q0 -136 20 -187t61 -51t61 50t20 187q0 136 -20 186.5t-61 50.5zM298 703h160v-2l-237 -165l-2 2z"/>
<glyph glyph-name="ocircumflex" horiz-adv-x="571" unicode="ô" d="M285 -8q-122 0 -192.5 65.5t-70.5 190.5q0 123 71 189t192 66q122 0 193 -65.5t71 -190.5q0 -123 -71.5 -189t-192.5 -66zM285 484q-41 0 -61 -49.5t-20 -186.5q0 -136 20 -187t61 -51t61 50t20 187q0 136 -20 186.5t-61 50.5zM449 536l-1 -1l-163 67l-163 -67l-1 1 l163 175h2z"/>
<glyph glyph-name="otilde" horiz-adv-x="571" unicode="õ" d="M349 562q-27 0 -73 24.5t-68 24.5q-48 0 -64 -49h-2v24q0 46 23.5 74t60.5 28q27 0 73 -24.5t68 -24.5q48 0 65 49h2q0 -17 -1 -25q-2 -46 -25 -73.5t-59 -27.5zM285 -8q-122 0 -192.5 65.5t-70.5 190.5q0 123 71 189t192 66q122 0 193 -65.5t71 -190.5 q0 -123 -71.5 -189t-192.5 -66zM285 484q-41 0 -61 -49.5t-20 -186.5q0 -136 20 -187t61 -51t61 50t20 187q0 136 -20 186.5t-61 50.5z"/>
<glyph glyph-name="odieresis" horiz-adv-x="571" unicode="ö" d="M285 -8q-122 0 -192.5 65.5t-70.5 190.5q0 123 71 189t192 66q122 0 193 -65.5t71 -190.5q0 -123 -71.5 -189t-192.5 -66zM285 484q-41 0 -61 -49.5t-20 -186.5q0 -136 20 -187t61 -51t61 50t20 187q0 136 -20 186.5t-61 50.5zM316 621q0 29 20 48t48 19q29 0 49 -19 t20 -48q0 -28 -20 -47t-49 -19q-28 0 -48 19t-20 47zM117 621q0 29 20 48t49 19q28 0 48 -19t20 -48q0 -28 -20 -47t-48 -19q-29 0 -49 19t-20 47z"/>
<glyph glyph-name="divide" d="M191 158q0 33 22.5 53t54.5 20t54 -20t22 -53q0 -32 -22 -51t-54 -19t-54.5 19.5t-22.5 50.5zM191 478q0 33 22.5 53t54.5 20t54 -20t22 -53q0 -32 -22 -51t-54 -19t-54.5 19.5t-22.5 50.5zM50 311v19h440v-19h-440z" unicode="÷"/>
<glyph glyph-name="oslash" horiz-adv-x="571" unicode="ø" d="M366 247q0 84 -8 138l-138 -312q18 -62 65 -62q28 0 44.5 18t26.5 71t10 147zM285 484q-27 0 -43.5 -18t-26.5 -71t-10 -147q0 -93 8 -140l137 312q-17 64 -65 64zM438 567l-37 -83q148 -53 148 -237q0 -125 -71 -190t-193 -65q-53 0 -96 12l-37 -85l-19 8l36 83 q-148 53 -148 238q0 125 71 190t193 65q53 0 96 -12l38 84z"/>
<glyph glyph-name="ugrave" horiz-adv-x="595" unicode="ù" d="M113 703h160l79 -165l-1 -1l-238 164v2zM527 495v-419q0 -17 9 -25l50 -49v-2h-223v107q-19 -53 -59 -84t-94 -31q-74 0 -113 53t-39 155q0 57 2 219q0 15 -9 24l-49 50v2h221l-1 -132v-140q0 -73 15 -111t54 -38q41 0 72 45v299q0 15 -9 25l-49 50v2h222z"/>
<glyph glyph-name="uacute" horiz-adv-x="595" unicode="ú" d="M527 495v-419q0 -17 9 -25l50 -49v-2h-223v107q-19 -53 -59 -84t-94 -31q-74 0 -113 53t-39 155q0 57 2 219q0 15 -9 24l-49 50v2h221l-1 -132v-140q0 -73 15 -111t54 -38q41 0 72 45v299q0 15 -9 25l-49 50v2h222zM296 703h160v-2l-237 -165l-2 2z"/>
<glyph glyph-name="ucircumflex" horiz-adv-x="595" unicode="û" d="M527 495v-419q0 -17 9 -25l50 -49v-2h-223v107q-19 -53 -59 -84t-94 -31q-74 0 -113 53t-39 155q0 57 2 219q0 15 -9 24l-49 50v2h221l-1 -132v-140q0 -73 15 -111t54 -38q41 0 72 45v299q0 15 -9 25l-49 50v2h222zM447 536l-1 -1l-163 67l-163 -67l-1 1l163 175h2z"/>
<glyph glyph-name="udieresis" horiz-adv-x="595" unicode="ü" d="M527 495v-419q0 -17 9 -25l50 -49v-2h-223v107q-19 -53 -59 -84t-94 -31q-74 0 -113 53t-39 155q0 57 2 219q0 15 -9 24l-49 50v2h221l-1 -132v-140q0 -73 15 -111t54 -38q41 0 72 45v299q0 15 -9 25l-49 50v2h222zM314 621q0 29 20 48t48 19q29 0 49 -19t20 -48 q0 -28 -20 -47t-49 -19q-28 0 -48 19t-20 47zM115 621q0 29 20 48t49 19q28 0 48 -19t20 -48q0 -28 -20 -47t-48 -19q-29 0 -49 19t-20 47z"/>
<glyph glyph-name="yacute" horiz-adv-x="476" unicode="ý" d="M279 703h160v-2l-237 -165l-2 2zM408 329l-128 -310q-39 -93 -86 -166q-31 -48 -62.5 -68.5t-76.5 -20.5q-24 0 -47 10l37 175h2l99 -98q8 -8 12 -8q7 0 15 12q20 28 38 69l6 16l-186 472q-5 13 -15 33l-27 48v2h259v-2l-40 -55q-7 -10 -2 -23l101 -280l81 197q6 14 6 19 q0 6 -6 18l-61 124v2h171v-2l-65 -112q-13 -21 -25 -52z"/>
<glyph glyph-name="thorn" horiz-adv-x="584" unicode="þ" d="M292 420q-46 0 -75 -45v-295q22 -30 65 -30t74 49.5t31 150.5q0 93 -24 131.5t-71 38.5zM372 503q85 0 137 -65.5t52 -179.5q0 -119 -59 -192.5t-152 -73.5q-106 0 -133 81v-221q0 -10 2.5 -14.5t12.5 -11.5l74 -52v-2h-310v2l48 46q9 8 9 24v783q0 15 -9 24l-48 50v2 l221 19v-335q46 116 155 116z"/>
<glyph glyph-name="OE" horiz-adv-x="992" unicode="Œ" d="M475 80v541q0 33 -22 51q-28 22 -74 22q-78 0 -112 -84t-34 -258q0 -179 35 -261t115 -82q22 0 43.5 8.5t30.5 16.5q18 16 18 46zM840 224l-87 104q-12 14 -27 14h-70v-302q0 -14 3.5 -17t18.5 -3h109q22 0 30 14l124 208h3v-242h-442q-62 -10 -121 -10q-172 0 -263 93 t-91 268q0 174 92 268t258 94q70 0 123 -10h432v-239h-2l-130 203q-11 16 -28 16h-100q-11 0 -13.5 -3.5t-2.5 -16.5v-302h70q16 1 27 14l87 104h2v-255h-2z"/>
<glyph glyph-name="oe" horiz-adv-x="862" unicode="œ" d="M540 288h147v3q0 111 -16.5 152t-51.5 41q-37 0 -56.5 -44.5t-22.5 -151.5zM285 484q-41 0 -61 -49.5t-20 -186.5q0 -136 20 -186.5t61 -50.5t61 49.5t20 186.5q0 136 -20 186.5t-61 50.5zM285 -8q-122 0 -192.5 65.5t-70.5 190.5q0 123 71 189t192 66q117 0 174 -68 q27 33 71.5 50.5t91.5 17.5q42 0 79 -11t69.5 -34t51 -65.5t18.5 -100.5q0 -12 -1 -22h-299v-14q3 -86 42.5 -128.5t100.5 -42.5q106 0 151 92h2q-37 -185 -220 -185q-46 0 -89 17.5t-69 49.5q-58 -67 -173 -67z"/>
<glyph glyph-name="Scaron" horiz-adv-x="566" unicode="Š" d="M544 218q0 -102 -77 -165t-203 -63q-109 0 -205 28v239h2l132 -228q9 -16 22 -18q15 -2 42 -2q62 0 99 30t37 85q0 47 -31 75.5t-107 64.5l-31 15q-40 19 -68 36.5t-57.5 44t-45 63t-15.5 81.5q0 95 71 152t189 57q97 0 192 -23v-228h-2l-135 216q-8 12 -20 14 q-11 2 -29 2q-54 0 -86.5 -29t-32.5 -81q0 -44 29.5 -71t97.5 -60l37 -18q39 -19 62 -31.5t51.5 -33t44 -40.5t26.5 -49t11 -63zM282 849l163 67l1 -2l-163 -174h-2l-163 174l1 2z"/>
<glyph glyph-name="scaron" horiz-adv-x="456" unicode="š" d="M298 83q0 29 -20.5 46t-75.5 42l-68 32q-97 46 -97 142q0 72 55 115t150 43q88 0 176 -27l-56 -145h-2l-78 139q-9 15 -23 15h-14q-35 0 -58 -18t-23 -52q0 -31 21.5 -50t70.5 -41l64 -28q54 -23 82.5 -54t28.5 -84q0 -79 -61 -122.5t-163 -43.5q-96 0 -184 31l55 155h2 l80 -155q6 -13 21 -13h23q43 0 68.5 20t25.5 53zM236 642l163 67l1 -2l-163 -174h-2l-163 174l1 2z"/>
<glyph glyph-name="Ydieresis" horiz-adv-x="640" unicode="Ÿ" d="M386 829q0 29 20 48t48 19q29 0 49 -19t20 -48q0 -28 -20 -47t-49 -19q-28 0 -48 19t-20 47zM187 829q0 29 20 48t49 19q28 0 48 -19t20 -48q0 -28 -20 -47t-48 -19q-29 0 -49 19t-20 47zM415 267v-171q0 -16 11 -26l73 -68v-2h-349v2l74 68q10 10 10 26v154q0 15 -6 25 l-165 316q-13 25 -27 43l-50 67v2h336v-2l-60 -69q-10 -12 -4 -24l146 -294l115 235q5 12 5 15q0 5 -8 16l-86 121v2h250v-2l-113 -121q-16 -16 -27 -37l-117 -238q-8 -16 -8 -38z"/>
<glyph glyph-name="circumflex" horiz-adv-x="428" unicode="ˆ" d="M378 536l-1 -1l-163 67l-163 -67l-1 1l163 175h2z"/>
<glyph glyph-name="tilde" horiz-adv-x="393" unicode="˜" d="M258 562q-27 0 -73 24.5t-68 24.5q-48 0 -64 -49h-2v24q0 46 23.5 74t60.5 28q27 0 73 -24.5t68 -24.5q48 0 65 49h2q0 -17 -1 -25q-2 -46 -25 -73.5t-59 -27.5z"/>
<glyph glyph-name="uni0394" horiz-adv-x="668" unicode="Δ" d="M454 20l-184 568l-211 -568h395zM30 0l221 596q5 13 5 19q0 9 -11 20l-59 66v2h236l228 -703h-620z"/>
<glyph glyph-name="uni03BC" horiz-adv-x="596" unicode="μ" d="M527 495v-421q0 -15 9 -24l50 -48v-2h-223v107q-13 -38 -38.5 -64.5t-58.5 -35.5q-17 -5 -45 -7v-148q0 -10 2.5 -14.5t12.5 -11.5l74 -52v-2h-310v2l51 46q9 9 9 24v577q0 15 -9 24l-49 48v2h219v-295q0 -68 15.5 -100t54.5 -32q43 0 72 52v300q0 15 -9 24l-49 49v2h222 z"/>
<glyph glyph-name="pi" horiz-adv-x="633" unicode="π" d="M555 72q0 -16 9 -24l48 -46v-2h-279v2l49 46q9 9 9 24v403h-149v-403q0 -16 9 -24l49 -46v-2h-280v2l49 46q9 8 9 24v346q0 15 -9 25l-49 50v2h592v-2l-48 -50q-9 -10 -9 -25v-346z"/>
<glyph glyph-name="endash" horiz-adv-x="500" unicode="–" d="M495 237h-490v19h490v-19z"/>
<glyph glyph-name="emdash" horiz-adv-x="1000" unicode="—" d="M995 237h-990v19h990v-19z"/>
<glyph glyph-name="quoteleft" horiz-adv-x="208" unicode="‘" d="M179 529q0 -29 -20 -48.5t-50 -19.5q-34 0 -55 23t-21 61q0 60 40 111t103 66l1 -2q-30 -16 -49 -46.5t-19 -63.5q0 -7 2.5 -9.5t10.5 -4.5q26 -4 41.5 -22.5t15.5 -44.5z"/>
<glyph glyph-name="quotesinglbase" horiz-adv-x="208" unicode="‚" d="M31 72q0 29 19.5 48.5t49.5 19.5q34 0 55.5 -23t21.5 -61q0 -60 -40.5 -111t-103.5 -66l-1 2q30 15 49.5 46t19.5 64q0 11 -14 14q-26 5 -41 22.5t-15 44.5z"/>
<glyph glyph-name="quotedblleft" horiz-adv-x="394" unicode="“" d="M176 722l1 -2q-30 -16 -49 -46.5t-19 -63.5q0 -7 2.5 -9.5t10.5 -4.5q26 -4 41.5 -22.5t15.5 -44.5q0 -29 -20 -48.5t-50 -19.5q-34 0 -55 23t-21 61q0 60 40 111t103 66zM362 722l1 -2q-30 -16 -49 -46.5t-19 -63.5q0 -7 2.5 -9.5t10.5 -4.5q26 -4 41.5 -22.5 t15.5 -44.5q0 -29 -20 -48.5t-50 -19.5q-34 0 -55 23t-21 61q0 60 40 111t103 66z"/>
<glyph glyph-name="quotedblright" horiz-adv-x="394" unicode="”" d="M217 645q0 29 19.5 48.5t49.5 19.5q34 0 55.5 -23t21.5 -62q0 -60 -40.5 -110.5t-103.5 -65.5l-1 2q30 15 49.5 45.5t19.5 64.5q0 11 -13 14q-26 5 -41.5 22.5t-15.5 44.5zM31 645q0 29 19.5 48.5t49.5 19.5q34 0 55.5 -23t21.5 -62q0 -60 -40.5 -110.5t-103.5 -65.5 l-1 2q30 15 49.5 45.5t19.5 64.5q0 11 -13 14q-26 5 -41.5 22.5t-15.5 44.5z"/>
<glyph glyph-name="dagger" horiz-adv-x="429" unicode="†" d="M54 513v19h151v171h20v-171h150v-19h-150v-383h-20v383h-151z"/>
<glyph glyph-name="daggerdbl" horiz-adv-x="429" unicode="‡" d="M375 301h-150v-171h-20v171h-151v19h151v193h-151v19h151v171h20v-171h150v-19h-150v-193h150v-19z"/>
<glyph glyph-name="ellipsis" horiz-adv-x="711" unicode="…" d="M510 68q0 34 23.5 56t56.5 22q34 0 57 -21.5t23 -56.5q0 -33 -23 -54.5t-57 -21.5q-33 0 -56.5 21.5t-23.5 54.5zM276 68q0 35 23 56.5t57 21.5t57 -21.5t23 -56.5q0 -33 -23 -54.5t-57 -21.5t-57 21.5t-23 54.5zM41 68q0 34 23.5 56t56.5 22q34 0 57.5 -21.5t23.5 -56.5 q0 -33 -23.5 -54.5t-57.5 -21.5q-33 0 -56.5 21.5t-23.5 54.5z"/>
<glyph glyph-name="perthousand" horiz-adv-x="981" unicode="‰" d="M600 701l-503 -711l-16 13l503 710zM481 290q73 0 108.5 -39.5t35.5 -110.5q0 -70 -35.5 -109.5t-108.5 -39.5q-71 0 -106.5 40t-35.5 110q0 69 35.5 109t106.5 40zM481 275q-26 0 -33.5 -29.5t-7.5 -104.5t7.5 -105t33.5 -30t34.5 30t8.5 104q0 75 -8.5 105t-34.5 30z M196 713q73 0 108.5 -39.5t35.5 -110.5q0 -70 -35.5 -109.5t-108.5 -39.5q-71 0 -106.5 40t-35.5 110q0 69 35.5 109t106.5 40zM196 698q-26 0 -33.5 -29.5t-7.5 -104.5t7.5 -105t33.5 -30t34.5 30t8.5 104q0 75 -8.5 105t-34.5 30zM812 290q73 0 108.5 -39.5t35.5 -110.5 q0 -70 -35.5 -109.5t-108.5 -39.5q-71 0 -106.5 40t-35.5 110q0 69 35.5 109t106.5 40zM812 275q-26 0 -33.5 -29.5t-7.5 -104.5t7.5 -105t33.5 -30t34.5 30t8.5 104q0 75 -8.5 105t-34.5 30z"/>
<glyph glyph-name="guilsinglleft" horiz-adv-x="279" unicode="‹" d="M27 252l223 230l2 -1l-92 -230l92 -229l-2 -1l-223 229v2z"/>
<glyph glyph-name="guilsinglright" horiz-adv-x="279" unicode="›" d="M252 250l-223 -229l-2 1l92 229l-92 230l2 1l223 -230v-2z"/>
<glyph glyph-name="fraction" horiz-adv-x="48" unicode="⁄" d="M293 701l-503 -711l-16 13l503 710z"/>
<glyph glyph-name="Euro" horiz-adv-x="697" unicode="€" d="M489 284h-191q14 -275 153 -275h13q21 0 31 14l153 236h2v-251q-97 -18 -212 -18q-157 0 -242.5 77t-101.5 217h-73v19h72q-2 30 -2 47q0 32 2 48h-72v19h74q17 138 104 217t234 79q112 0 217 -19v-246h-2l-152 231q-11 15 -36 15h-13q-134 0 -149 -277h191v-19h-192v-95 h192v-19z"/>
<glyph glyph-name="trademark" horiz-adv-x="861" unicode="™" d="M245 412q0 -10 5 -15l34 -32v-2h-173v2l35 32q5 5 5 15v273h-25q-10 0 -15 -8l-65 -105h-2l8 131h292l8 -131h-2l-65 105q-5 8 -16 8h-24v-273zM449 452q0 -14 1.5 -19t10.5 -15l45 -53v-2h-131v2l45 53q10 13 10 34v193q0 10 -6 16l-35 40v2h125l92 -201l82 201h121v-2 l-33 -34q-5 -5 -5 -13v-247q0 -8 5 -13l33 -29v-2h-169v2l32 30q5 4 5 12v193q0 19 1 28l-109 -269h-1l-119 262v-169z"/>
<glyph glyph-name="uni2190" horiz-adv-x="706" unicode="←" d="M651 239h-556l226 -226l-15 -15l-251 251l251 251l16 -14l-227 -226h556v-21z"/>
<glyph glyph-name="uni2191" horiz-adv-x="612" unicode="↑" d="M316 -49h-21v556l-226 -227l-14 16l251 251l251 -251l-15 -15l-226 226v-556z"/>
<glyph glyph-name="uni2192" horiz-adv-x="706" unicode="→" d="M55 260h556l-227 226l16 14l251 -251l-251 -251l-15 15l226 226h-556v21z"/>
<glyph glyph-name="uni2193" horiz-adv-x="612" unicode="↓" d="M295 530h21v-556l226 226l15 -15l-251 -251l-251 251l14 16l226 -227v556z"/>
<glyph glyph-name="partialdiff" horiz-adv-x="562" unicode="∂" d="M369 275q0 75 -11 143q-25 29 -63 29q-91 0 -91 -216q0 -220 79 -220q86 0 86 264zM274 -8q-111 0 -181 67t-70 188q0 112 62.5 180t148.5 68q79 0 120 -60q-45 231 -236 276v2q1 0 11.5 -0.5t11.5 -0.5q195 -15 296.5 -132.5t101.5 -293.5q0 -294 -265 -294z"/>
<glyph glyph-name="product" horiz-adv-x="776" unicode="∏" d="M685 614v-525q0 -15 9 -24l66 -63v-2h-332v2l66 63q10 9 10 24v594h-232v-594q0 -15 10 -24l66 -63v-2h-333v2l67 63q9 9 9 24v525q0 15 -9 24l-67 63v2h745v-2l-66 -63q-9 -9 -9 -24z"/>
<glyph glyph-name="summation" horiz-adv-x="600" unicode="∑" d="M432 362l-378 -342h344q19 0 29 14l124 208h2v-242h-547v2l289 266l-213 355q-11 17 -25 30l-54 48v2h538l5 -239h-2l-134 203q-11 16 -28 16h-144z"/>
<glyph glyph-name="minus" d="M50 314v19h440v-19h-440z" unicode="−"/>
<glyph glyph-name="radical" d="M488 750l-262 -750h-2l-158 445l18 5l141 -394l245 699z" unicode="√"/>
<glyph glyph-name="infinity" horiz-adv-x="768" unicode="∞" d="M583 203q50 0 81 37t31 85t-31 85t-81 37q-22 0 -40.5 -5.5t-39 -20.5t-32.5 -25t-37.5 -35.5t-36.5 -35.5q11 -10 36.5 -35.5t37.5 -35.5t32.5 -25t39 -20.5t40.5 -5.5zM73 325q0 -48 31 -85t81 -37q21 0 40 5.5t40 20.5t32.5 25t37.5 36t36 35q-8 7 -36 35.5t-38 36.5 t-32 24t-40.5 21t-39.5 5q-50 0 -81 -37t-31 -85zM53 325q0 55 37.5 98t94.5 43q23 0 44 -6t43.5 -22.5t34.5 -26.5t39.5 -37.5t37.5 -36.5q8 8 37 36.5t40 38t34 26t43.5 22.5t44.5 6q57 0 94.5 -43t37.5 -98t-37.5 -98t-94.5 -43q-24 0 -44.5 6t-43 22.5t-35 27t-39.5 37 t-37 36.5q-10 -9 -37.5 -36.5t-39.5 -37.5t-34.5 -26.5t-43.5 -22.5t-44 -6q-57 0 -94.5 43t-37.5 98z"/>
<glyph glyph-name="approxequal" d="M384 191q-46 0 -116.5 33t-110.5 33q-61 0 -97 -59l-16 11q40 67 113 67q46 0 116.5 -33t110.5 -33q60 0 96 58l17 -10q-40 -67 -113 -67zM384 369q-46 0 -116.5 33t-110.5 33q-61 0 -97 -59l-16 11q40 67 113 67q46 0 116.5 -33t110.5 -33q60 0 96 58l17 -10 q-40 -67 -113 -67z" unicode="≈"/>
<glyph glyph-name="notequal" d="M50 404v19h264l56 101l17 -10l-51 -91h154v-19h-164l-89 -160h253v-19h-264l-59 -107l-17 10l54 97h-154v19h164l89 160h-253z" unicode="≠"/>
<glyph glyph-name="lessequal" d="M71 374l389 129l6 -19l-339 -111l339 -111l-6 -19l-389 129v2zM50 102v19h440v-19h-440z" unicode="≤"/>
<glyph glyph-name="greaterequal" d="M80 503l389 -129v-2l-389 -129l-6 19l339 111l-339 111zM490 121v-19h-440v19h440z" unicode="≥"/>
<glyph glyph-name="lozenge" d="M270 688l-197 -364l197 -364l197 364zM490 324l-219 -405h-2l-219 405l219 405h2z" unicode="◊"/>
</font>
</defs>
</svg>
